<?xml version="1.0" standalone="no"?>
<!DOCTYPE svg PUBLIC "-//W3C//DTD SVG 20010904//EN"
 "http://www.w3.org/TR/2001/REC-SVG-20010904/DTD/svg10.dtd">
<svg version="1.0" xmlns="http://www.w3.org/2000/svg"
  x="0px" y="0px" viewBox="0 0 7063.000000 1180.000000"
 preserveAspectRatio="xMidYMid meet">
<metadata>
Created by potrace 1.16, written by Peter Selinger 2001-2019
</metadata>
<g transform="translate(0.000000,1180.000000) scale(0.100000,-0.100000)"
fill="#000000" stroke="none">
<path d="M0 5900 l0 -5900 35308 0 35309 0 6 2027 c4 1114 7 3769 7 5900 l0
3873 -35315 0 -35315 0 0 -5900z m23620 -5 l0 -5665 -11690 0 -11690 0 0 5665
0 5665 11690 0 11690 0 0 -5665z m11570 0 l0 -5665 -5665 0 -5665 0 0 5665 0
5665 5665 0 5665 0 0 -5665z m35200 -5 l0 -5660 -17475 0 -17475 0 0 5660 0
5660 17475 0 17475 0 0 -5660z"/>
<path d="M2967 7852 c-16 -17 -17 -167 -17 -1955 l0 -1936 22 -15 c20 -14 109
-16 763 -16 476 0 772 4 830 11 333 41 609 186 783 412 233 301 281 818 109
1162 -76 153 -196 285 -346 380 -50 32 -91 59 -91 60 0 2 30 26 68 53 77 58
194 176 239 242 195 288 215 720 48 1055 -149 298 -441 492 -828 549 -87 13
-227 16 -834 16 -694 0 -731 -1 -746 -18z m1401 -658 c162 -33 276 -114 337
-237 120 -245 30 -537 -200 -647 -112 -54 -165 -60 -526 -60 -289 0 -328 2
-333 16 -3 9 -6 219 -6 468 0 338 3 455 12 464 20 20 617 17 716 -4z m65
-1620 c250 -56 397 -235 397 -484 0 -200 -94 -355 -264 -436 -117 -56 -185
-63 -568 -64 -323 0 -338 1 -348 19 -11 21 -15 937 -4 965 9 24 680 24 787 0z"/>
<path d="M6487 7852 c-16 -17 -17 -167 -17 -1954 0 -1862 1 -1936 18 -1951 17
-16 106 -17 1075 -17 1044 0 1057 0 1077 20 19 19 20 33 20 301 0 276 -4 311
-34 331 -6 4 -333 8 -727 8 -542 0 -718 3 -727 12 -9 9 -12 130 -12 484 0 260
3 479 6 488 6 14 79 16 726 16 l719 0 24 25 25 24 0 279 c0 261 -1 281 -19
303 l-19 24 -729 5 -728 5 -3 464 c-1 334 1 468 9 477 9 12 135 14 729 14
l719 0 20 26 c20 26 21 39 21 310 0 271 -1 285 -20 304 -20 20 -33 20 -1078
20 -1013 0 -1060 -1 -1075 -18z"/>
<path d="M9690 7850 c-20 -20 -20 -33 -20 -1950 0 -1917 0 -1930 20 -1950 19
-19 33 -20 328 -20 262 0 311 2 330 16 l22 15 0 549 c0 533 1 550 19 560 26
13 409 13 447 0 23 -9 109 -126 409 -556 209 -301 391 -555 404 -565 22 -18
46 -19 412 -19 339 0 390 2 403 16 19 18 20 28 4 57 -6 12 -202 280 -435 595
-232 314 -423 578 -423 585 0 6 44 33 98 58 133 64 240 138 346 239 203 194
330 433 383 723 26 142 24 418 -5 565 -105 530 -469 904 -1016 1047 -199 51
-270 55 -1017 55 -676 0 -689 0 -709 -20z m1480 -669 c47 -12 128 -42 180 -68
81 -39 108 -58 180 -132 93 -95 134 -165 169 -289 42 -152 37 -334 -14 -483
-65 -192 -209 -334 -415 -410 -140 -51 -219 -59 -570 -59 -281 0 -319 2 -324
16 -8 21 -8 1418 0 1439 6 15 37 16 358 12 320 -4 359 -6 436 -26z"/>
<path d="M13360 7850 c-20 -20 -20 -33 -20 -1950 0 -1917 0 -1930 20 -1950 20
-20 33 -20 1013 -20 950 0 995 1 1010 18 15 16 17 53 17 314 0 273 -1 296 -18
311 -17 15 -78 17 -668 17 -492 0 -653 3 -662 12 -9 9 -12 383 -12 1623 0
1549 -1 1613 -18 1628 -16 15 -54 17 -330 17 -299 0 -313 -1 -332 -20z"/>
<path d="M16207 7852 c-16 -17 -17 -167 -17 -1954 0 -1862 1 -1936 18 -1951
16 -15 54 -17 328 -17 170 0 314 4 320 8 34 22 34 29 34 1962 0 1933 0 1940
-34 1962 -6 4 -151 8 -322 8 -289 0 -312 -1 -327 -18z"/>
<path d="M17934 7849 c-19 -21 -19 -67 -19 -1949 0 -1882 0 -1928 19 -1949 19
-20 27 -21 326 -21 249 0 310 3 326 14 19 14 19 42 24 1340 3 873 8 1327 15
1327 6 1 346 -594 757 -1322 411 -728 757 -1332 769 -1341 19 -16 53 -18 373
-18 302 0 355 2 374 16 l22 15 0 1938 c0 1865 -1 1939 -18 1954 -16 15 -54 17
-329 17 -288 0 -311 -1 -326 -18 -16 -17 -17 -124 -17 -1338 0 -725 -4 -1325
-9 -1332 -6 -10 -13 -5 -29 20 -11 18 -349 618 -752 1333 -402 715 -741 1308
-753 1317 -20 16 -56 18 -378 18 -349 0 -356 0 -375 -21z"/>
<path d="M29979 9460 c-143 -18 -296 -73 -414 -150 -76 -49 -131 -59 -348 -63
-223 -5 -215 2 -198 -174 17 -175 25 -200 76 -248 23 -22 50 -56 60 -75 40
-80 84 -101 107 -52 13 26 15 27 90 24 51 -2 88 2 111 12 48 20 61 4 55 -64
-10 -96 -79 -162 -194 -183 -68 -12 -69 -12 -72 -46 -9 -94 21 -135 128 -176
224 -85 233 -260 29 -522 -38 -48 -83 -109 -101 -135 -18 -26 -38 -48 -43 -48
-26 0 -1159 430 -1195 454 -29 19 -57 57 -110 146 -86 145 -118 184 -182 216
-88 44 -325 56 -364 17 -34 -34 -13 -113 71 -266 31 -55 87 -171 126 -256 39
-86 76 -165 83 -176 7 -11 284 -224 615 -474 330 -250 601 -457 601 -460 0 -4
-286 -149 -635 -324 -528 -264 -642 -317 -677 -317 -23 0 -98 18 -167 41 -116
38 -133 41 -211 37 -99 -5 -173 -33 -239 -93 -93 -85 -84 -103 102 -215 405
-242 471 -279 512 -286 32 -4 189 24 670 120 346 70 629 125 630 124 2 -2 10
-72 19 -155 20 -188 45 -331 93 -535 l36 -157 -72 -76 c-183 -193 -354 -471
-451 -735 -48 -131 -97 -331 -115 -480 -31 -238 -10 -571 50 -799 8 -30 13
-57 11 -58 -2 -2 -43 -8 -92 -14 -180 -20 -317 -70 -406 -149 -71 -62 -128
-195 -128 -296 l0 -24 533 0 c487 0 535 2 567 18 58 29 74 65 99 223 51 324
147 592 302 842 72 116 269 367 288 367 4 0 37 -37 72 -82 247 -319 574 -624
898 -837 51 -33 91 -61 88 -61 -3 0 -42 -7 -88 -15 -233 -44 -372 -124 -439
-255 -19 -37 -49 -152 -50 -187 0 -10 111 -13 520 -13 570 0 551 -2 603 60 15
17 29 46 32 64 6 32 -105 785 -241 1630 -30 186 -54 344 -54 350 0 6 21 18 47
26 54 17 82 51 90 106 4 33 -5 58 -60 170 -161 326 -242 659 -267 1109 -25
430 38 836 185 1195 259 633 268 1167 30 1780 l-18 45 26 38 c48 71 49 212 4
290 -30 50 -95 113 -135 129 -86 34 -175 28 -242 -16 l-35 -23 -35 23 c-126
87 -389 139 -581 114z"/>
<path d="M41820 9516 l0 -243 53 -47 c28 -26 66 -60 84 -76 18 -17 37 -30 43
-30 7 0 10 -793 10 -2498 0 -2417 3 -2677 30 -2737 5 -11 16 -66 26 -122 9
-57 20 -103 24 -103 4 0 13 -28 19 -62 7 -35 21 -79 31 -100 10 -20 22 -52 25
-72 4 -20 11 -36 17 -36 5 0 6 -4 3 -10 -3 -5 -2 -10 2 -10 5 0 15 -20 22 -45
7 -25 16 -45 20 -45 4 0 15 -22 25 -50 10 -27 21 -50 25 -50 4 0 15 -22 25
-50 10 -27 21 -50 25 -50 5 0 16 -18 26 -40 10 -22 22 -40 26 -40 4 0 11 -10
15 -22 10 -32 66 -114 117 -169 9 -10 14 -19 10 -19 -5 0 -1 -6 7 -13 8 -7 31
-32 50 -57 19 -25 45 -53 57 -63 13 -10 23 -22 23 -27 0 -8 86 -96 136 -139
16 -14 59 -51 95 -83 36 -32 71 -58 77 -58 6 0 16 -9 22 -20 6 -11 17 -20 25
-20 8 0 20 -9 27 -20 7 -11 16 -20 21 -20 6 0 88 -51 122 -77 6 -5 28 -17 50
-28 22 -11 45 -25 51 -31 7 -6 27 -17 46 -25 18 -7 38 -18 45 -25 7 -6 32 -18
57 -25 26 -7 46 -16 46 -20 0 -3 25 -14 55 -24 30 -9 55 -20 55 -25 0 -4 27
-13 60 -20 33 -7 60 -16 60 -20 0 -4 33 -15 73 -25 39 -9 80 -21 90 -26 10 -5
68 -17 130 -26 62 -9 114 -20 117 -25 3 -4 90 -13 192 -19 143 -9 231 -9 379
0 106 6 196 15 199 19 3 5 55 16 117 25 62 9 120 21 130 26 10 5 51 17 91 26
39 10 72 20 72 24 0 5 25 13 55 20 30 7 57 16 60 21 3 4 30 16 60 25 30 10 55
21 55 26 0 4 25 15 55 24 30 8 55 19 55 23 0 4 19 16 43 27 23 11 48 26 55 32
7 7 18 13 23 13 6 0 30 14 54 30 24 17 48 30 54 30 5 0 14 6 18 13 4 6 22 19
38 27 17 8 36 23 43 33 7 9 20 17 27 17 8 0 20 9 27 20 7 11 18 20 25 20 6 0
20 11 30 23 10 13 24 26 30 28 6 2 39 29 72 59 32 30 65 60 73 66 30 26 163
178 166 190 2 7 14 20 28 28 13 9 24 23 24 31 0 8 9 19 20 25 11 6 20 17 20
25 0 8 8 20 18 27 10 7 25 28 33 46 7 17 17 32 21 32 4 0 17 18 28 40 11 22
24 40 29 40 5 0 12 14 16 31 4 17 13 33 20 35 8 3 22 28 31 55 10 27 21 49 25
49 4 0 15 23 25 50 10 28 21 50 25 50 5 0 16 27 25 60 9 33 20 60 24 60 4 0
16 32 26 70 10 39 21 70 25 70 3 0 15 39 25 87 10 49 21 90 25 93 5 3 16 62
26 130 9 69 22 128 28 132 7 5 11 831 13 2573 2 2420 3 2566 20 2572 9 4 31
19 47 34 17 16 51 47 78 70 l47 42 0 243 0 244 -180 0 -180 0 0 -115 0 -115
-105 0 -105 0 0 115 0 115 -175 0 -175 0 0 -115 0 -115 -100 0 -100 0 0 115 0
115 -185 0 -185 0 0 -245 0 -244 26 -18 c14 -10 40 -31 58 -48 18 -16 49 -43
69 -59 l37 -29 0 -129 0 -128 -155 0 -155 0 0 -100 0 -100 -100 0 -100 0 0
100 0 100 -165 0 -165 0 0 130 c0 83 4 130 10 130 6 0 44 29 85 65 41 36 79
65 85 65 6 0 10 91 10 255 l0 255 -177 -2 -178 -3 -3 -112 -3 -113 -94 0 -95
0 0 115 0 115 -185 0 -185 0 0 -115 0 -115 -100 0 -100 0 0 115 0 115 -175 0
-175 0 0 -255 c0 -168 4 -255 10 -255 6 0 25 -13 43 -30 17 -16 51 -46 75 -66
l42 -37 0 -129 0 -128 -155 0 -155 0 0 -102 0 -103 -100 3 -100 3 0 100 0 99
-155 0 -155 0 0 126 0 127 35 33 c18 19 39 34 44 34 6 0 15 9 21 19 5 11 26
29 45 41 l35 22 -2 246 -3 247 -177 3 -178 2 0 -115 0 -115 -100 0 -100 0 0
115 0 115 -185 0 -185 0 0 -115 0 -115 -95 0 -95 0 0 115 0 115 -180 0 -180 0
0 -244z m3060 -897 c0 -378 -4 -409 -65 -505 -41 -63 -97 -108 -177 -141 -56
-22 -73 -25 -153 -20 -129 6 -209 49 -284 151 -71 96 -74 117 -79 509 l-3 347
380 0 381 0 0 -341z m-185 -1404 c88 -23 215 -90 289 -152 103 -85 175 -191
235 -343 l25 -65 6 -985 5 -985 168 -3 167 -2 0 551 c0 533 1 554 21 623 68
227 218 375 414 407 59 10 82 10 146 -5 97 -21 212 -94 268 -169 43 -57 101
-166 101 -189 0 -8 4 -18 9 -23 24 -25 31 -164 31 -667 l0 -528 178 -2 177 -3
3 -195 c11 -764 -209 -1353 -693 -1849 -358 -367 -730 -572 -1260 -694 -127
-30 -257 -41 -480 -41 -255 0 -365 12 -563 60 -564 137 -1043 453 -1393 919
-148 197 -289 471 -361 705 -90 290 -118 498 -118 876 l0 224 175 0 175 0 0
493 c0 524 7 631 49 734 55 138 139 243 244 301 278 156 592 -14 687 -371 18
-67 20 -113 20 -615 l0 -542 168 2 167 3 5 990 c5 917 6 992 23 1024 9 19 17
39 17 45 0 27 75 158 125 219 52 63 152 151 185 164 8 3 22 11 30 18 23 18
147 65 214 80 77 18 258 13 341 -10z"/>
<path d="M44553 8909 c-7 -7 -28 -15 -47 -18 l-35 -6 15 -32 c9 -18 21 -34 27
-36 7 -2 -1 -2 -18 0 -28 3 -29 2 -6 -7 15 -7 21 -15 17 -26 -4 -11 1 -18 14
-21 30 -8 24 -28 -13 -48 -33 -17 -35 -17 -101 5 -63 21 -69 25 -86 65 -22 51
-33 59 -66 51 -20 -5 -24 -11 -18 -24 4 -9 14 -36 22 -60 15 -43 88 -119 140
-144 40 -20 36 -33 -19 -58 -46 -22 -52 -23 -60 -8 -5 9 -21 31 -35 47 -22 26
-28 29 -44 18 -11 -6 -21 -18 -23 -27 -5 -24 22 -73 56 -100 28 -22 40 -25
113 -24 l81 2 18 -36 c16 -35 16 -37 -1 -47 -80 -46 -120 -119 -108 -197 l7
-42 -24 15 c-40 26 -68 29 -79 9 -18 -33 -11 -48 26 -60 20 -7 48 -18 62 -26
48 -25 70 -18 81 24 14 49 52 104 86 122 22 12 29 12 32 3 3 -7 22 -34 44 -60
39 -48 40 -58 4 -65 -15 -2 -20 -11 -20 -33 0 -26 4 -30 32 -33 26 -3 40 5 78
42 39 37 46 48 39 68 -4 13 -8 64 -9 113 -1 50 -7 99 -13 110 -6 11 -17 56
-25 100 -12 68 -12 87 -1 126 8 25 13 70 13 100 -1 30 1 91 5 136 7 94 10 90
-89 92 -35 1 -65 -3 -72 -10z"/>
<path d="M43103 4737 c-38 -40 -78 -86 -88 -103 -43 -67 -45 -68 -77 -25 -38
52 -91 78 -124 60 -19 -10 -27 -10 -36 -1 -15 15 -50 16 -64 2 -8 -8 -19 -7
-37 1 -22 10 -30 9 -44 -3 -10 -8 -38 -18 -63 -22 -59 -9 -80 -30 -80 -77 0
-40 -19 -59 -59 -59 -11 0 -33 -17 -51 -40 -17 -22 -37 -40 -44 -40 -21 0 -49
-38 -42 -56 4 -11 -3 -27 -19 -44 -23 -24 -25 -30 -14 -48 10 -17 10 -23 -4
-37 -19 -19 -22 -41 -7 -50 7 -4 3 -19 -10 -39 -11 -19 -20 -41 -20 -50 0 -27
29 -31 47 -7 9 14 21 20 30 16 22 -8 43 13 43 42 0 15 5 23 12 21 15 -5 30
-72 17 -76 -5 -2 -19 -12 -31 -23 -23 -19 -23 -19 -4 -34 19 -14 19 -16 -7
-52 -25 -35 -26 -39 -10 -50 15 -12 15 -14 0 -31 -19 -21 -23 -52 -7 -52 6 0
8 -10 5 -23 -4 -15 -1 -28 9 -36 9 -8 16 -29 16 -50 0 -20 7 -44 14 -54 10
-13 11 -26 2 -58 -8 -33 -8 -42 4 -49 25 -16 52 -11 91 16 l37 26 22 -22 c20
-20 24 -21 37 -7 13 12 20 13 34 4 16 -10 21 -8 34 10 13 18 20 21 40 13 28
-11 55 -4 55 14 1 28 15 36 42 24 20 -10 27 -22 31 -53 14 -106 30 -172 45
-194 9 -13 22 -32 28 -42 6 -10 18 -27 27 -37 10 -10 17 -26 17 -36 0 -36 31
-66 68 -66 19 0 43 -7 53 -16 13 -12 22 -13 38 -5 11 6 35 11 55 11 25 0 40 7
55 26 12 15 21 33 21 40 0 7 29 43 63 79 67 70 84 107 106 229 17 94 13 145
-14 204 -29 63 -30 72 -10 72 29 0 14 41 -31 84 -45 43 -52 73 -14 61 12 -4
23 3 36 22 10 16 17 31 16 36 -1 4 8 7 19 7 17 0 20 5 17 25 -4 17 -1 25 8 25
17 0 19 41 3 57 -8 8 -4 17 12 32 21 20 22 22 5 40 -11 12 -14 21 -7 26 20 12
12 45 -14 55 -21 8 -24 14 -19 34 7 29 -17 46 -66 46 -44 0 -70 17 -70 44 0
18 -13 30 -60 54 -33 18 -69 32 -80 32 -11 0 -20 3 -20 6 0 3 38 48 85 99 47
52 85 99 85 104 0 26 -15 41 -39 41 -21 0 -44 -17 -98 -73z"/>
<path d="M45777 4803 c-19 -18 0 -53 73 -136 44 -50 80 -95 80 -99 0 -5 -7 -8
-15 -8 -8 0 -42 -14 -75 -32 -47 -24 -60 -36 -60 -54 0 -29 -27 -44 -77 -44
-46 0 -63 -14 -63 -52 0 -16 -5 -28 -13 -28 -25 0 -36 -21 -25 -46 8 -17 8
-27 -2 -39 -11 -13 -10 -19 5 -35 16 -17 16 -24 6 -47 -11 -23 -10 -29 3 -39
9 -6 16 -21 16 -33 0 -11 6 -21 13 -21 6 -1 21 -15 33 -33 14 -22 27 -31 42
-30 34 4 27 -25 -17 -66 -48 -44 -63 -81 -32 -81 12 0 21 -1 21 -2 0 -2 -11
-30 -25 -63 -13 -33 -25 -79 -25 -103 0 -53 18 -180 29 -207 5 -11 14 -35 21
-52 7 -18 19 -33 26 -33 8 0 14 -5 14 -10 0 -6 18 -30 40 -54 22 -24 40 -48
40 -54 0 -6 12 -24 26 -41 20 -24 34 -31 60 -31 19 0 43 -5 54 -12 15 -10 22
-9 38 5 10 9 35 17 55 17 30 0 39 5 52 30 8 16 15 33 15 39 0 5 20 40 45 77
35 52 45 76 45 108 0 23 4 46 9 51 5 6 11 33 13 60 3 44 6 52 32 63 36 15 32
17 45 -18 11 -33 21 -36 53 -19 18 10 24 8 39 -12 15 -20 21 -22 37 -12 15 9
22 8 34 -4 14 -13 18 -12 36 8 l21 22 39 -26 c67 -47 115 -28 95 38 -8 26 -8
38 3 52 7 10 14 34 14 54 0 20 7 42 15 49 9 7 13 21 9 35 -3 13 -1 26 5 30 8
4 6 16 -6 37 -14 23 -15 32 -5 35 18 7 14 38 -8 58 -25 22 -25 34 -2 51 16 13
16 15 -6 33 -12 11 -26 21 -31 23 -13 4 2 71 17 76 7 2 12 -6 12 -21 0 -29 21
-50 43 -41 10 3 20 -2 27 -15 6 -12 17 -21 24 -21 24 0 27 30 7 69 -12 23 -16
42 -11 51 5 9 3 24 -7 41 -14 23 -14 31 -4 43 11 13 8 20 -13 41 -17 16 -25
35 -24 52 2 17 -4 30 -17 37 -11 6 -39 30 -63 54 -24 23 -52 42 -64 42 -34 0
-58 28 -52 60 8 36 -24 66 -80 75 -22 4 -49 14 -58 22 -15 13 -23 14 -47 4
-23 -10 -33 -10 -49 0 -16 10 -26 10 -47 1 -20 -9 -31 -10 -41 -1 -22 18 -79
-7 -117 -52 -19 -21 -37 -39 -40 -39 -3 0 -19 19 -35 43 -56 80 -166 187 -193
187 -14 0 -29 -3 -32 -7z"/>
<path d="M44310 4320 c-285 -49 -526 -187 -709 -406 -59 -70 -171 -247 -171
-269 0 -4 -7 -21 -15 -38 -8 -18 -29 -79 -46 -137 -32 -103 -33 -109 -33 -300
0 -183 1 -201 27 -293 98 -350 311 -613 627 -772 155 -78 303 -110 515 -110
266 0 435 50 650 190 247 161 405 389 494 710 62 227 30 528 -82 768 -58 123
-122 214 -226 320 -181 186 -392 296 -651 338 -141 23 -243 23 -380 -1z m56
-336 c-9 -22 11 -54 34 -54 19 0 20 -8 20 -264 0 -184 -3 -267 -11 -272 -7 -4
-88 70 -195 177 -180 180 -184 184 -178 218 5 27 3 37 -12 48 -18 14 -18 15 6
33 65 50 255 127 319 129 17 1 22 -3 17 -15z m362 1 c74 -19 203 -78 253 -116
l23 -17 -24 -20 c-23 -18 -24 -22 -10 -46 14 -27 13 -28 -172 -213 -133 -133
-191 -184 -202 -180 -14 6 -16 37 -16 267 l0 261 30 10 c24 9 30 17 30 40 0
34 6 35 88 14z m-886 -352 c16 -14 22 -14 44 -3 24 14 29 10 205 -166 129
-129 179 -185 177 -199 -3 -19 -11 -20 -268 -20 l-264 0 -6 25 c-5 21 -12 25
-39 23 -25 -1 -31 2 -27 15 2 10 8 36 11 59 4 24 11 45 16 49 5 3 9 13 9 22 0
21 53 135 83 179 25 37 33 40 59 16z m1402 -50 c41 -75 96 -222 96 -259 0 -18
-5 -24 -23 -24 -28 0 -47 -17 -47 -42 0 -17 -16 -18 -265 -18 l-265 0 0 23 c0
16 53 75 180 202 176 176 179 179 205 165 22 -12 28 -12 42 3 10 9 22 17 28
17 6 0 28 -30 49 -67z m-683 -362 c37 -37 38 -78 4 -115 -34 -37 -95 -37 -124
0 -68 86 43 192 120 115z m-291 -159 c0 -23 -365 -388 -374 -373 -10 16 -47
14 -67 -5 -15 -14 -19 -13 -39 16 -49 68 -107 208 -123 298 -6 31 -6 32 28 32
27 0 35 4 35 18 0 10 3 22 7 25 3 4 125 7 270 7 244 0 263 -1 263 -18z m1002
-4 c2 -18 11 -24 36 -26 26 -3 32 -7 32 -27 0 -60 -82 -259 -129 -315 -19 -23
-22 -24 -31 -7 -12 19 -55 23 -66 6 -9 -15 -374 350 -374 373 0 17 19 18 264
18 l265 0 3 -22z m-852 -392 l0 -263 -25 -11 c-14 -6 -26 -17 -26 -24 -1 -7
-2 -20 -3 -28 0 -8 -5 -14 -11 -14 -96 14 -222 61 -304 115 -47 31 -49 34 -30
47 21 14 26 57 8 68 -15 9 360 384 378 377 10 -4 13 -57 13 -267z m380 89
c181 -181 184 -185 170 -210 -12 -23 -11 -27 8 -48 21 -22 21 -24 5 -38 -49
-39 -168 -95 -245 -114 -34 -9 -71 -18 -80 -21 -14 -4 -18 1 -18 25 0 24 -7
34 -30 46 l-30 16 0 252 c0 242 4 277 30 277 3 0 88 -83 190 -185z"/>
<path d="M55857 8833 c-4 -3 -7 -435 -7 -960 l0 -953 110 0 110 0 0 189 c0
197 5 229 43 266 12 11 35 38 52 59 l29 39 13 -32 c7 -17 17 -31 22 -31 5 0
14 -12 20 -27 6 -16 29 -57 51 -93 22 -36 47 -80 55 -97 8 -18 19 -33 23 -33
4 0 14 -16 21 -35 7 -19 18 -41 25 -48 8 -7 24 -33 37 -56 41 -74 47 -83 61
-92 7 -5 64 -9 126 -9 l112 0 0 30 c0 17 -4 30 -8 30 -4 0 -16 20 -26 45 -11
25 -23 45 -27 45 -5 0 -15 16 -23 35 -8 19 -20 40 -26 47 -17 20 -78 126 -85
148 -4 11 -11 20 -16 20 -5 0 -9 5 -9 11 0 6 -13 31 -30 56 -16 24 -30 47 -30
51 0 7 -51 87 -69 108 -5 7 -7 15 -4 18 4 3 2 6 -3 6 -6 0 -16 16 -24 35 -8
19 -18 35 -22 35 -10 0 5 20 45 60 15 16 27 31 27 36 0 4 11 19 24 33 27 29
94 108 141 167 17 21 42 50 58 65 15 15 27 31 27 36 0 4 12 19 25 32 27 25 33
69 13 89 -8 8 -46 12 -104 12 -76 0 -99 -4 -128 -21 -20 -12 -36 -26 -36 -32
0 -6 -11 -22 -24 -36 -61 -65 -108 -121 -102 -121 5 0 -14 -22 -91 -106 -13
-14 -23 -28 -23 -31 0 -4 -11 -18 -24 -32 -58 -62 -96 -109 -96 -120 0 -6 -4
-11 -10 -11 -7 0 -10 201 -10 584 0 523 -2 584 -16 590 -21 8 -189 8 -197 -1z"/>
<path d="M50457 8773 c-4 -3 -7 -422 -7 -930 l0 -923 333 0 c354 0 429 7 514
45 29 14 56 25 58 25 13 0 155 136 155 148 0 5 9 21 20 35 23 29 50 125 50
179 0 21 5 38 10 38 6 0 10 18 10 40 0 22 -4 40 -10 40 -5 0 -10 16 -10 35 0
47 -19 133 -33 148 -7 6 -18 24 -24 39 -24 54 -100 131 -152 154 -23 10 -41
24 -41 33 0 8 3 12 6 8 7 -7 12 -3 76 53 25 22 53 56 63 75 9 19 20 35 24 35
4 0 14 25 21 55 7 31 17 58 22 61 10 7 11 234 0 234 -4 0 -13 24 -19 53 -10
50 -58 137 -75 137 -4 0 -8 6 -8 13 0 17 -47 60 -87 81 -18 9 -33 20 -33 25 0
5 -21 14 -47 21 -26 6 -50 16 -53 21 -12 19 -163 28 -456 29 -165 0 -304 -3
-307 -7z m703 -246 c69 -36 115 -84 135 -143 26 -78 15 -251 -18 -279 -7 -5
-20 -22 -30 -37 -10 -16 -24 -28 -33 -28 -8 0 -17 -7 -20 -15 -4 -8 -10 -12
-15 -9 -5 3 -9 1 -9 -5 0 -20 -107 -31 -300 -31 l-200 0 0 291 0 291 218 -3
c215 -4 217 -4 272 -32z m-32 -783 c4 -5 27 -16 51 -24 38 -12 98 -61 137
-112 33 -42 47 -199 25 -274 -13 -45 -63 -111 -108 -141 -62 -43 -127 -53
-355 -53 l-208 0 0 311 0 311 226 -4 c135 -2 228 -8 232 -14z"/>
<path d="M54475 8717 c-104 -48 -124 -189 -38 -268 35 -32 43 -34 106 -34 55
0 70 4 78 18 6 9 15 17 22 17 18 0 57 91 57 133 0 20 -4 37 -10 37 -5 0 -10 7
-10 15 0 8 -15 31 -34 51 -28 30 -41 36 -87 40 -34 3 -65 -1 -84 -9z"/>
<path d="M61700 8670 c-36 -22 -71 -39 -77 -39 -10 -1 -13 -54 -13 -233 l0
-233 -74 3 c-100 5 -116 -10 -116 -106 0 -92 11 -102 113 -102 l77 0 0 -520 0
-520 110 0 110 0 0 520 0 520 73 0 c120 0 117 -2 117 101 0 72 -3 89 -15 89
-8 0 -15 5 -15 11 0 7 -28 9 -80 7 l-80 -3 0 273 0 272 -32 -1 c-19 0 -61 -17
-98 -39z"/>
<path d="M52325 8180 c-33 -4 -73 -15 -90 -24 -16 -9 -37 -16 -46 -16 -9 0
-33 -11 -53 -25 -20 -14 -41 -25 -46 -25 -5 0 -14 -9 -20 -20 -6 -11 -17 -20
-24 -20 -8 0 -28 -17 -45 -37 -17 -21 -37 -46 -46 -55 -8 -10 -15 -20 -15 -23
0 -2 -13 -25 -29 -50 -16 -25 -32 -62 -36 -83 -4 -20 -11 -39 -16 -43 -20 -12
-33 -217 -21 -332 6 -61 15 -113 20 -116 4 -3 14 -26 22 -50 8 -24 19 -49 25
-55 6 -6 17 -26 25 -44 30 -76 185 -203 280 -231 25 -7 55 -18 67 -23 11 -6
26 -7 32 -4 6 4 11 2 11 -4 0 -16 297 -10 325 7 11 6 39 17 63 24 23 7 42 16
42 20 0 4 15 12 34 19 19 6 43 19 54 28 28 23 73 59 94 74 10 7 20 27 24 44 5
27 -1 38 -46 87 -32 36 -60 57 -74 57 -11 0 -43 -21 -71 -45 -104 -95 -237
-136 -371 -115 -38 6 -80 17 -94 24 -69 36 -84 47 -125 88 -24 25 -41 48 -38
52 3 3 2 6 -3 6 -6 0 -18 24 -29 53 -10 28 -21 57 -26 62 -4 6 -9 26 -11 45
l-3 35 482 3 483 2 6 26 c9 36 -3 236 -14 243 -5 3 -12 22 -16 42 -21 116
-156 277 -281 338 -39 18 -78 37 -88 43 -21 11 -165 28 -217 27 -19 -1 -62 -5
-95 -9z m219 -214 c32 -8 61 -18 65 -23 3 -4 25 -21 48 -36 23 -15 50 -39 60
-54 10 -16 25 -36 34 -46 10 -10 20 -34 23 -52 4 -19 11 -35 15 -37 5 -2 11
-16 13 -33 l3 -30 -367 -3 -368 -2 0 24 c0 14 4 27 9 30 4 3 14 26 21 52 13
45 85 130 150 177 59 42 191 57 294 33z"/>
<path d="M55463 8180 c-49 -7 -133 -42 -164 -68 -8 -7 -29 -23 -46 -38 l-33
-26 0 47 c0 27 -6 52 -14 61 -18 18 -156 20 -174 2 -9 -9 -12 -162 -12 -625
l0 -613 110 0 110 0 0 435 c0 371 2 440 15 465 9 17 19 30 24 30 4 0 13 11 19
25 6 14 17 25 23 25 7 0 27 11 45 25 41 32 122 49 190 41 82 -10 84 -8 84 98
0 50 -4 97 -9 105 -11 17 -95 23 -168 11z"/>
<path d="M57220 8179 c-128 -18 -266 -128 -286 -227 -4 -18 -10 -32 -15 -32
-12 0 -12 -193 0 -206 5 -5 14 -26 21 -48 7 -21 19 -46 26 -55 77 -88 129
-123 219 -141 33 -7 69 -16 80 -21 11 -4 49 -14 84 -20 35 -7 72 -20 81 -29 9
-9 24 -19 32 -23 9 -3 22 -22 29 -41 7 -20 17 -36 21 -36 4 0 8 -18 8 -40 0
-22 -4 -40 -10 -40 -5 0 -10 -7 -10 -15 0 -8 -10 -31 -22 -49 -39 -60 -161
-84 -250 -50 -24 9 -48 23 -54 30 -6 8 -17 14 -24 14 -7 0 -11 3 -7 6 3 3 -3
14 -14 25 -10 10 -22 31 -25 45 -4 15 -15 35 -25 45 -19 19 -49 26 -49 11 0
-5 -31 -16 -70 -26 -50 -13 -71 -24 -75 -37 -7 -20 21 -119 33 -119 4 0 13
-14 20 -30 8 -17 26 -43 41 -58 31 -30 103 -82 115 -82 4 0 28 -9 53 -21 41
-19 61 -20 185 -17 82 2 142 7 146 13 4 6 26 16 48 23 23 7 45 19 48 27 3 8
11 15 19 15 16 0 77 61 77 77 0 6 6 13 13 16 8 3 19 27 26 54 7 26 17 56 22
65 5 10 9 47 9 83 0 36 -4 73 -9 83 -5 9 -15 39 -22 65 -7 27 -18 51 -26 54
-7 3 -13 11 -13 17 0 15 -62 76 -77 76 -6 0 -13 6 -16 13 -3 7 -24 19 -48 27
-24 8 -47 18 -50 23 -3 4 -49 15 -102 24 -54 9 -97 20 -97 25 0 4 -9 8 -20 8
-37 0 -97 38 -104 65 -4 14 -11 25 -16 25 -6 0 -10 20 -10 44 0 54 36 122 76
143 36 18 120 28 168 19 46 -9 101 -57 116 -101 6 -19 16 -35 21 -35 5 0 9 -7
9 -15 0 -25 21 -27 100 -10 80 17 100 28 100 56 0 28 -30 110 -46 126 -8 8
-14 18 -14 23 0 4 -19 28 -42 53 -43 44 -94 77 -122 77 -8 0 -16 5 -18 10 -4
12 -113 30 -168 28 -19 0 -60 -4 -90 -9z"/>
<path d="M58425 8179 c-38 -5 -72 -13 -75 -17 -3 -4 -25 -14 -49 -22 -24 -8
-49 -19 -55 -25 -6 -5 -24 -17 -40 -25 -53 -27 -186 -174 -186 -205 0 -7 -9
-22 -19 -34 -11 -13 -26 -48 -32 -79 -7 -32 -18 -60 -23 -64 -14 -9 -15 -326
-1 -336 6 -4 18 -38 27 -75 10 -38 25 -75 33 -83 8 -9 15 -21 15 -28 0 -6 13
-27 30 -46 16 -19 29 -38 30 -42 1 -18 135 -128 156 -128 7 0 19 -6 26 -13 7
-8 31 -19 53 -26 22 -7 51 -18 64 -24 34 -17 316 -16 333 1 6 6 19 12 29 12
20 0 127 56 151 79 46 44 48 44 48 4 0 -82 1 -83 104 -83 58 0 96 4 104 12 9
9 12 157 12 603 0 694 10 635 -112 635 -89 0 -108 -14 -108 -78 l0 -42 -42 27
c-24 15 -46 33 -50 39 -4 6 -26 17 -50 24 -24 8 -45 17 -48 21 -7 10 -161 29
-215 28 -22 -1 -71 -6 -110 -10z m262 -214 c101 -24 217 -112 229 -175 4 -16
10 -30 15 -30 5 0 9 -101 9 -225 0 -143 -4 -225 -10 -225 -5 0 -10 -7 -10 -15
0 -38 -79 -124 -134 -146 -17 -7 -34 -17 -37 -22 -11 -15 -82 -27 -172 -27
-85 0 -177 15 -177 29 0 4 -16 13 -35 20 -19 7 -35 16 -35 21 0 5 -16 18 -35
30 -19 12 -35 26 -35 31 0 5 -13 27 -29 50 -17 22 -35 65 -42 95 -7 30 -16 57
-21 60 -10 7 -11 204 0 204 4 0 13 24 19 53 6 30 23 71 37 93 31 48 98 124
109 124 5 0 22 9 37 20 63 45 208 61 317 35z"/>
<path d="M59956 8179 c-33 -5 -62 -13 -65 -18 -3 -4 -17 -12 -31 -16 -28 -8
-80 -45 -110 -78 l-20 -21 0 49 c0 34 -5 52 -17 61 -23 17 -154 19 -171 2 -9
-9 -12 -162 -12 -625 l0 -614 108 3 107 3 5 445 c5 405 7 448 23 473 9 15 22
27 27 27 6 0 10 7 10 15 0 8 10 20 23 26 12 7 26 18 30 25 11 19 102 44 157
44 116 0 199 -58 219 -152 7 -30 11 -212 11 -466 0 -312 3 -421 12 -430 8 -8
47 -12 110 -12 l98 0 0 435 c0 239 4 435 8 435 4 0 13 15 20 34 7 18 36 56 65
83 56 53 110 73 197 73 95 0 188 -61 209 -136 7 -25 11 -196 11 -476 l0 -438
23 -5 c12 -3 63 -5 112 -3 l90 3 3 425 c3 425 -4 556 -32 609 -34 65 -44 79
-88 123 -26 26 -64 52 -83 59 -19 7 -35 16 -35 20 0 4 -39 12 -86 19 -88 13
-250 1 -263 -18 -3 -5 -22 -17 -42 -26 -20 -9 -63 -44 -97 -77 -53 -53 -63
-59 -69 -43 -9 24 -67 84 -80 84 -6 0 -13 6 -16 13 -2 6 -22 18 -43 26 -22 8
-41 18 -44 22 -7 10 -131 29 -180 28 -19 -1 -62 -5 -94 -10z"/>
<path d="M53211 8156 c-8 -9 -11 -46 -9 -103 l3 -88 302 -3 301 -2 -16 -33
c-8 -17 -18 -34 -21 -37 -13 -11 -68 -96 -79 -122 -6 -16 -15 -28 -20 -28 -5
0 -14 -16 -22 -35 -8 -19 -18 -35 -22 -35 -5 0 -13 -11 -18 -24 -5 -14 -23
-44 -40 -67 -16 -23 -30 -48 -30 -56 0 -7 -5 -13 -10 -13 -6 0 -14 -10 -19
-22 -5 -13 -21 -38 -35 -57 -14 -19 -26 -39 -26 -45 0 -5 -7 -16 -15 -25 -23
-24 -75 -104 -75 -117 0 -5 -8 -19 -18 -30 -10 -10 -27 -35 -38 -54 -10 -19
-22 -37 -25 -40 -3 -3 -14 -20 -23 -37 -9 -18 -20 -33 -24 -33 -13 0 -32 -54
-32 -92 l0 -38 490 0 491 0 -3 93 -3 92 -328 3 -327 2 17 28 c10 15 21 30 26
33 4 3 16 20 25 37 9 16 27 49 40 71 12 23 26 41 30 41 4 0 14 16 21 35 7 19
17 35 22 35 6 0 8 4 5 9 -3 5 1 11 9 15 8 3 15 10 15 15 0 6 12 27 26 48 14
21 30 48 35 61 5 12 13 22 19 22 5 0 10 6 10 13 0 7 8 22 18 33 10 10 26 36
35 57 10 20 22 37 27 37 5 0 11 8 14 18 7 21 69 120 89 142 7 8 19 30 26 48 8
17 17 32 21 32 4 0 13 14 20 30 7 17 18 34 24 38 6 4 21 28 33 54 18 39 20 52
12 78 l-11 30 -453 0 c-376 0 -455 -2 -464 -14z"/>
<path d="M54448 8156 c-17 -12 -18 -54 -18 -625 l0 -611 110 0 110 0 0 615 c0
540 -2 615 -15 615 -8 0 -15 5 -15 10 0 15 -152 12 -172 -4z"/>
<path d="M54625 5438 c-3 -7 -4 -438 -3 -958 l3 -945 85 -3 c141 -5 128 -25
132 213 l3 205 27 28 c15 15 43 45 62 67 l35 40 11 -32 c7 -18 16 -33 21 -33
5 0 15 -16 23 -35 8 -19 20 -40 26 -47 17 -20 78 -126 85 -148 4 -11 10 -20
13 -20 4 0 16 -20 27 -45 11 -25 23 -45 27 -45 4 0 15 -15 23 -32 30 -62 54
-101 67 -109 7 -5 64 -9 126 -9 l112 0 0 30 c0 17 -4 30 -8 30 -5 0 -15 18
-22 40 -7 22 -17 40 -22 40 -5 0 -16 15 -24 33 -8 17 -32 61 -54 97 -22 36
-46 77 -52 93 -7 15 -16 27 -20 27 -4 0 -15 17 -23 37 -9 21 -19 40 -24 43 -4
3 -27 41 -51 85 -24 44 -46 82 -49 85 -4 3 -15 23 -26 45 -11 22 -23 41 -26
43 -7 3 13 29 74 93 20 23 37 43 37 46 0 7 60 78 95 113 14 14 25 29 25 33 0
7 36 48 100 117 37 39 53 75 45 99 -6 20 -13 21 -121 21 l-114 0 -39 -42 c-22
-24 -67 -77 -101 -118 -33 -41 -72 -87 -85 -101 -14 -14 -25 -29 -25 -34 0 -4
-10 -17 -22 -29 -13 -12 -36 -39 -53 -60 -16 -22 -46 -57 -65 -79 l-35 -40 -5
584 -5 584 -103 3 c-76 2 -104 -1 -107 -10z"/>
<path d="M50452 4463 l3 -928 85 -3 c47 -2 95 0 108 3 l22 5 0 270 0 270 173
0 c175 1 311 12 331 29 6 5 31 14 56 21 25 6 62 22 82 36 21 13 40 24 43 24 9
0 111 95 135 126 41 53 70 103 81 144 7 25 16 47 20 50 12 9 29 145 29 227 0
91 -17 215 -29 223 -5 3 -12 22 -16 42 -4 21 -20 58 -36 83 -16 25 -29 48 -29
51 0 7 -100 104 -136 132 -16 12 -39 25 -51 28 -13 4 -23 10 -23 15 0 4 -26
16 -57 26 -32 9 -60 21 -63 24 -13 18 -186 29 -446 29 l-284 0 2 -927z m605
696 c35 -6 63 -14 63 -18 0 -5 17 -13 38 -19 21 -7 52 -23 68 -37 16 -14 32
-25 36 -25 15 0 86 -122 93 -158 4 -20 12 -40 17 -44 7 -4 11 -51 11 -123 0
-72 -4 -119 -11 -123 -5 -4 -13 -24 -17 -45 -11 -55 -73 -140 -132 -181 -29
-20 -58 -36 -66 -36 -7 0 -22 -7 -33 -15 -33 -23 -137 -35 -301 -35 l-153 0 0
435 0 435 162 0 c89 0 190 -5 225 -11z"/>
<path d="M52187 4789 c-27 -5 -59 -16 -70 -23 -12 -8 -36 -17 -54 -21 -17 -3
-34 -13 -37 -21 -3 -8 -13 -14 -22 -14 -22 0 -159 -134 -174 -171 -7 -16 -15
-29 -19 -29 -4 0 -15 -22 -25 -50 -10 -27 -21 -50 -26 -50 -8 0 -28 -119 -33
-200 -6 -92 12 -258 31 -303 11 -23 25 -58 33 -77 7 -19 21 -44 31 -54 10 -11
18 -23 18 -27 0 -8 91 -101 126 -129 38 -30 110 -68 154 -81 25 -7 51 -17 59
-23 19 -15 283 -15 302 0 8 6 38 17 67 25 28 7 52 16 52 21 0 4 15 14 33 22
17 9 47 27 65 42 l32 27 0 -56 c0 -41 4 -56 16 -61 20 -8 158 -8 178 0 14 6
16 69 16 614 0 509 -2 609 -14 619 -9 8 -46 11 -103 9 l-88 -3 -3 -64 -3 -63
-29 27 c-60 57 -69 63 -92 70 -12 4 -43 16 -68 28 -36 16 -71 20 -175 23 -71
2 -152 -1 -178 -7z m306 -214 c32 -8 63 -19 70 -25 7 -5 32 -24 56 -42 24 -18
49 -42 55 -52 6 -11 19 -28 29 -38 17 -18 18 -39 15 -274 -3 -230 -5 -257 -20
-268 -10 -7 -18 -17 -18 -22 0 -20 -68 -72 -135 -105 -67 -33 -74 -34 -185
-34 -111 0 -117 1 -178 33 -168 88 -244 240 -228 456 5 71 12 103 37 155 31
65 121 171 145 171 7 0 20 8 29 17 41 41 220 56 328 28z"/>
<path d="M53730 4793 c-45 -7 -134 -57 -172 -96 l-38 -39 0 47 c0 27 -6 52
-14 61 -20 19 -169 20 -185 0 -8 -9 -10 -181 -9 -622 l3 -609 85 -3 c47 -2 95
0 108 3 l22 5 0 430 c0 435 3 471 37 493 7 4 13 14 13 22 0 8 12 22 28 32 15
10 32 23 37 29 39 44 206 59 281 25 38 -17 84 -66 84 -89 0 -6 6 -12 13 -14 9
-4 13 -110 17 -469 l5 -464 108 -3 107 -3 0 491 c0 338 -3 490 -11 490 -5 0
-7 5 -4 10 4 6 2 16 -3 23 -5 7 -15 28 -21 48 -6 20 -23 47 -36 59 -14 13 -25
29 -25 37 0 7 -6 13 -12 13 -7 1 -29 14 -48 30 -19 17 -42 30 -51 30 -10 0
-19 4 -21 10 -7 23 -206 38 -298 23z"/>
<path d="M56105 4788 c-27 -5 -52 -12 -55 -16 -3 -4 -23 -13 -45 -21 -22 -8
-42 -17 -45 -20 -3 -4 -26 -19 -51 -34 -109 -62 -226 -233 -252 -364 -6 -35
-15 -63 -19 -63 -5 0 -8 -52 -8 -115 0 -63 4 -115 8 -115 4 0 14 -34 21 -75 7
-41 18 -81 25 -87 6 -7 18 -29 25 -48 8 -19 19 -39 25 -45 7 -5 22 -26 34 -47
28 -45 144 -148 167 -148 7 0 18 -6 24 -14 7 -8 38 -22 69 -31 31 -9 68 -22
81 -29 33 -15 270 -15 302 1 13 6 50 19 82 28 31 8 57 19 57 23 0 4 14 13 32
21 36 16 47 25 125 103 66 66 106 125 125 186 7 23 16 42 20 42 3 0 12 31 18
68 17 95 9 335 -12 382 -9 19 -25 55 -37 80 -32 73 -52 101 -123 172 -81 82
-207 153 -302 168 -74 12 -223 11 -291 -2z m270 -212 c32 -8 64 -21 71 -30 6
-9 16 -16 21 -16 6 0 33 -22 61 -50 82 -81 132 -205 132 -328 0 -63 -20 -170
-34 -185 -7 -7 -18 -28 -26 -47 -19 -49 -114 -139 -180 -171 -30 -15 -80 -30
-112 -34 -58 -7 -198 10 -198 25 0 4 -14 13 -31 19 -35 12 -149 124 -149 146
0 8 -5 15 -11 15 -5 0 -7 5 -4 10 3 6 2 10 -2 10 -12 0 -31 55 -38 110 -4 25
-11 55 -17 67 -6 12 -8 34 -4 50 4 15 14 62 22 103 22 108 88 202 184 264 84
54 197 69 315 42z"/>
<path d="M57053 4764 c-7 -19 4 -103 16 -118 5 -6 15 -46 22 -88 7 -43 16 -78
20 -78 4 0 15 -44 25 -97 9 -54 20 -100 24 -103 4 -3 15 -47 25 -97 9 -51 21
-93 25 -93 3 0 15 -45 25 -100 10 -55 21 -100 25 -100 4 0 15 -45 25 -100 10
-55 21 -100 25 -100 4 0 13 -34 20 -75 15 -90 10 -87 164 -83 85 2 110 6 116
18 4 8 12 25 18 37 6 11 18 61 27 110 10 48 21 93 25 98 4 6 16 51 26 100 9
50 21 95 25 101 5 6 16 46 24 90 9 43 20 88 26 99 5 11 18 61 28 110 10 50 19
79 20 65 1 -14 8 -38 16 -53 8 -16 22 -68 31 -115 9 -48 20 -92 24 -97 5 -6
16 -51 25 -100 9 -50 21 -95 25 -100 5 -6 16 -48 25 -95 10 -47 21 -90 26 -95
4 -6 13 -42 20 -80 7 -39 20 -76 29 -82 10 -9 52 -12 135 -10 116 2 120 3 123
25 2 12 7 22 11 22 4 0 16 45 26 100 10 55 21 100 25 100 4 0 15 45 25 100 10
55 21 100 25 100 4 0 15 45 25 100 10 55 21 100 25 100 4 0 15 45 25 100 10
55 21 100 25 100 3 0 14 43 24 95 10 52 22 95 26 95 10 0 33 138 28 175 l-3
30 -93 3 c-113 3 -119 -1 -138 -101 -8 -40 -18 -81 -23 -92 -5 -11 -17 -63
-27 -115 -9 -52 -20 -97 -24 -100 -3 -3 -15 -51 -25 -107 -10 -57 -22 -103
-25 -103 -4 0 -13 -35 -19 -77 -10 -66 -24 -120 -51 -197 -4 -13 -12 10 -24
70 -10 49 -21 94 -25 99 -5 6 -16 51 -25 100 -10 50 -21 95 -26 100 -4 6 -13
40 -21 78 -7 37 -16 67 -19 67 -4 0 -7 6 -7 13 -2 30 -37 182 -43 187 -4 3
-13 37 -20 75 -17 96 -29 105 -134 105 -76 0 -86 -2 -100 -22 -9 -12 -16 -32
-16 -44 0 -12 -4 -24 -8 -26 -5 -1 -16 -43 -25 -92 -9 -49 -20 -92 -25 -95 -5
-3 -14 -40 -21 -81 -7 -41 -17 -80 -23 -86 -5 -7 -16 -49 -24 -95 -9 -46 -20
-88 -24 -94 -4 -5 -15 -48 -24 -94 -8 -46 -20 -88 -25 -95 -6 -7 -13 -32 -17
-56 -9 -54 -16 -38 -34 78 -7 45 -16 82 -20 82 -4 0 -15 47 -25 105 -10 58
-21 105 -25 105 -4 0 -15 46 -25 103 -9 56 -21 107 -26 113 -5 5 -16 55 -26
110 -9 54 -21 101 -25 102 -4 2 -8 13 -8 23 0 11 -5 29 -10 40 -10 17 -22 19
-111 19 -81 0 -101 -3 -106 -16z"/>
</g>
</svg>
