<?xml version="1.0" encoding="utf-8"?>
<!-- Generator: Adobe Illustrator 27.5.0, SVG Export Plug-In . SVG Version: 6.00 Build 0)  -->
<svg version="1.1" id="Ebene_1" xmlns="http://www.w3.org/2000/svg" xmlns:xlink="http://www.w3.org/1999/xlink" x="0px" y="0px"
	 viewBox="0 0 318.9 99.4" style="enable-background:new 0 0 318.9 99.4;" xml:space="preserve">
<style type="text/css">
	.st0{fill:#4565AD;}
	.st1{fill:#E30613;}
</style>
<path class="st0" d="M169.2,26.4c-10,0-17.8,8-17.8,18.1c0,10.5,7.4,18.2,17.6,18.2c10.4,0,17.7-7.6,17.7-18.5
	C186.8,34.1,179.2,26.4,169.2,26.4z M183.8,44.3c0,9.2-6.1,15.6-14.7,15.6c-9.5,0-14.7-7.9-14.7-15.4c0-8.6,6.5-15.3,14.8-15.3
	C177.4,29.2,183.8,35.8,183.8,44.3z"/>
<path class="st0" d="M246.9,28.9V28c0-0.5-0.4-1-1-1h-27.3c-0.5,0-1,0.4-1,1v0.9c0,0.5,0.4,1,1,1h12.2v31.3c0,0.5,0.4,1,1,1h1
	c0.5,0,1-0.4,1-1V29.8H246C246.5,29.8,246.9,29.4,246.9,28.9z"/>
<path class="st0" d="M258.4,27.6c-0.2-0.3-0.5-0.6-0.9-0.6h-0.9c-0.4,0-0.7,0.2-0.9,0.6l-14.4,33.1c-0.1,0.3-0.1,0.6,0.1,0.9
	c0.2,0.3,0.5,0.4,0.8,0.4h1c0.4,0,0.7-0.2,0.9-0.6l9.7-22.2c1.4-3.3,2.6-5.9,3.3-7.6c3,7.2,12.3,28.8,12.8,29.8
	c0.2,0.3,0.5,0.6,0.9,0.6h1.1c0.3,0,0.6-0.2,0.8-0.4c0.2-0.3,0.2-0.6,0.1-0.9L258.4,27.6z"/>
<path class="st0" d="M35.6,26.4C25.4,26.4,18,34.1,18,44.8c0,10.5,7.1,17.9,17.3,17.9c6,0,10.4-1.9,13.1-5.6c0,2.1,0,3.7,0.1,4.2
	c0.1,0.5,0.5,0.8,1,0.8h0.9c0.5,0,1-0.4,1-1V43.9c0-0.5-0.4-1-1-1H35.4c-0.5,0-1,0.4-1,1v0.9c0,0.5,0.4,1,1,1h13v1.9
	c0,7.9-4.6,12.3-13.1,12.3c-9.9,0-14.4-7.8-14.4-15.1c0-9.2,6-15.6,14.5-15.6c6.7,0,11.4,2.9,13.1,8.1c0.1,0.4,0.5,0.7,0.9,0.7h1
	c0.3,0,0.6-0.1,0.8-0.4c0.2-0.2,0.2-0.6,0.1-0.9C49.4,30.1,43.7,26.4,35.6,26.4z"/>
<path class="st0" d="M102.1,26.4c-10,0-17.8,8-17.8,18.1c0,10.5,7.4,18.2,17.6,18.2c10.4,0,17.7-7.6,17.7-18.5
	C119.7,34.1,112.1,26.4,102.1,26.4z M116.7,44.3c0,9.2-6.1,15.6-14.7,15.6c-9.5,0-14.7-7.9-14.7-15.4c0-8.6,6.5-15.3,14.8-15.3
	C110.3,29.2,116.7,35.8,116.7,44.3z"/>
<path class="st1" d="M65.9,42.9c-0.5,0-1,0.4-1,1v0.9c0,0.5,0.4,1,1,1h13.3c0.5,0,1-0.4,1-1v-0.9c0-0.5-0.4-1-1-1H65.9z"/>
<path class="st0" d="M139.8,27h-12.2h-1.7h-0.2c-0.5,0-1,0.4-1,1v33.1c0,0.5,0.4,1,1,1h1c0.5,0,1-0.4,1-1V45.7v0h12.5
	c6.3,0,10-3.4,10-9.3C150,32.1,148.2,27,139.8,27z M139.9,42.9h-12.4l0-13.1h12.3c5.1,0,7.4,2,7.4,6.6
	C147.3,39.4,146,42.9,139.9,42.9z"/>
<path class="st0" d="M216.6,60.9c-0.3-1.1-0.3-5.3-0.3-6.7v-0.4c0-4.7-1.5-7.7-4.6-9.3c2.8-1.5,4.3-4.2,4.3-8
	c0-4.3-1.8-9.4-10.3-9.4h-12.2h-1.7h-0.2c-0.5,0-1,0.4-1,1v33.1c0,0.5,0.4,1,1,1h1c0.5,0,1-0.4,1-1V45.7v0h0.7l-0.1,0h10
	c7.7,0,9.3,3.1,9.3,8v0.4c0,3.3,0,5.5,0.3,7.1c0.1,0.4,0.5,0.8,0.9,0.8h1c0.3,0,0.6-0.1,0.8-0.4C216.6,61.5,216.7,61.1,216.6,60.9z
	 M193.5,29.8h12.3c5.1,0,7.4,2,7.4,6.6c0,3-1.3,6.5-7.4,6.5h-12.4L193.5,29.8z"/>
<g>
	<path class="st1" d="M50,71.4h-0.3c-0.3,0-0.6,0.3-0.6,0.6v3.6h-5.7V72c0-0.3-0.3-0.6-0.6-0.6h-0.3c-0.3,0-0.6,0.3-0.6,0.6v9.3
		c0,0.3,0.3,0.6,0.6,0.6h0.3c0.3,0,0.6-0.3,0.6-0.6v-4.3h5.7v4.3c0,0.3,0.3,0.6,0.6,0.6H50c0.3,0,0.6-0.3,0.6-0.6V72
		C50.7,71.7,50.4,71.4,50,71.4z"/>
	<path class="st1" d="M62,71.4h-0.2c-0.2,0-0.5,0.1-0.6,0.4l-4.1,9.3c-0.1,0.2-0.1,0.4,0.1,0.6c0.1,0.2,0.3,0.3,0.5,0.3h0.3
		c0.2,0,0.5-0.1,0.6-0.4l1.4-3.3h3.8l1.4,3.3c0.1,0.2,0.3,0.4,0.6,0.4H66c0.2,0,0.4-0.1,0.5-0.3c0.1-0.2,0.1-0.4,0.1-0.6l-4-9.3
		C62.4,71.6,62.2,71.4,62,71.4z M60.6,76.8l0.6-1.4c0.3-0.6,0.5-1.1,0.6-1.4c0.1,0.3,0.3,0.6,0.5,1.1l0.8,1.8H60.6z"/>
	<path class="st1" d="M83.9,71.4h-0.4c-0.2,0-0.5,0.1-0.6,0.3c-1.2,2.5-2.9,6-3.8,7.8c-1-2.1-3-6.3-3.8-7.8
		c-0.1-0.2-0.3-0.3-0.6-0.3h-0.3c-0.3,0-0.6,0.3-0.6,0.6v9.3c0,0.3,0.3,0.6,0.6,0.6h0.3c0.3,0,0.6-0.3,0.6-0.6v-4.2c0-0.6,0-1.3,0-2
		c1,2,2.3,4.8,3,6.2l0.1,0.2c0.1,0.2,0.3,0.3,0.6,0.3h0.3c0.2,0,0.4-0.1,0.6-0.3c1-2,2.2-4.6,3.2-6.5c0,0.1,0,0.3,0,0.4v5.8
		c0,0.3,0.3,0.6,0.6,0.6h0.3c0.3,0,0.6-0.3,0.6-0.6V72C84.5,71.7,84.2,71.4,83.9,71.4z"/>
	<path class="st1" d="M101.2,74.3c0-1.8-1.3-2.9-3.4-2.9H94c-0.3,0-0.6,0.3-0.6,0.6v9.3c0,0.3,0.3,0.6,0.6,0.6h3.7
		c2.4,0,3.9-1.3,3.9-3.4c0-1.1-0.5-1.8-1.2-2.3C100.9,75.8,101.2,75.1,101.2,74.3z M98,75.6h-3.1v-2.7h2.9c1.9,0,1.9,1,1.9,1.4
		C99.7,74.9,99.5,75.6,98,75.6z M94.8,77H98c0.6,0,2.1,0.2,2.1,1.6c0,1.5-1.3,1.9-2.4,1.9h-2.8V77z"/>
	<path class="st1" d="M117.3,71.4h-0.3c-0.3,0-0.6,0.3-0.6,0.6v5.4c0,2.3-0.9,3.3-2.9,3.3c-1.9,0-2.8-1.1-2.8-3.2V72
		c0-0.3-0.3-0.6-0.6-0.6h-0.3c-0.3,0-0.6,0.3-0.6,0.6v5.5c0,3,1.6,4.6,4.3,4.6c2,0,4.4-0.8,4.4-4.8V72
		C117.9,71.7,117.7,71.4,117.3,71.4z"/>
	<path class="st1" d="M130.4,71.4h-3.8c-0.3,0-0.6,0.3-0.6,0.6v9.3c0,0.3,0.3,0.6,0.6,0.6h0.3c0.3,0,0.6-0.3,0.6-0.6v-4h2.5
		c1.9,0,2.3,0.6,2.3,2c0,0.9,0,1.6,0.1,2.1c0.1,0.3,0.3,0.5,0.6,0.5h0.3c0.2,0,0.4-0.1,0.5-0.2c0.1-0.1,0.2-0.3,0.1-0.5
		c0-0.1-0.1-0.5-0.1-1.9c0-1.2-0.3-2.1-1-2.6c0.7-0.5,1.1-1.3,1.1-2.3C133.8,72.6,132.4,71.4,130.4,71.4z M127.5,72.9h2.8
		c0.9,0,2,0.3,2,1.5c0,0.8-0.3,1.5-2.3,1.5h-2.5V72.9z"/>
	<path class="st1" d="M150.8,76.1h-4.2c-0.3,0-0.6,0.3-0.6,0.6v0.2c0,0.3,0.3,0.6,0.6,0.6h3.3v0c0,2.6-1.8,3.1-3.3,3.1
		c-2.5,0-3.7-2-3.7-3.9c0-2.4,1.5-4.1,3.8-4.1c1,0,2.8,0.3,3.4,2c0.1,0.3,0.3,0.4,0.6,0.4h0.3c0.2,0,0.4-0.1,0.5-0.3
		c0.1-0.2,0.1-0.4,0.1-0.5c-0.6-2-2.3-3.2-4.8-3.2c-3.1,0-5.3,2.3-5.3,5.5c0,3.2,2.1,5.4,5.2,5.4c1.4,0,2.5-0.4,3.4-1.1
		c0,0.2,0,0.3,0,0.3c0,0.3,0.3,0.5,0.6,0.5h0.2c0.3,0,0.6-0.3,0.6-0.6v-4.7C151.4,76.3,151.1,76.1,150.8,76.1z"/>
</g>
<path class="st0" d="M80.7,29.8c0.5,0,1-0.4,1-1V28c0-0.5-0.4-1-1-1H58.2c-0.5,0-1,0.4-1,1v33.1c0,0.5,0.4,1,1,1h22.5
	c0.5,0,1-0.4,1-1v-0.9c0-0.5-0.4-1-1-1H60.1V45.8c0,0,0,0,0,0v-0.3v-0.3v-0.6v-0.1V44v-0.3v-0.3c0,0,0,0,0,0V29.8H80.7z"/>
<path class="st0" d="M300.5,59.3h-1.1h-19.5V45.1c0,0,0,0,0,0v-0.6v-0.9v-0.3c0,0,0,0,0,0V29.8V28c0-0.5-0.4-1-1-1h-1
	c-0.5,0-1,0.4-1,1v33.1c0,0.5,0.4,1,1,1h21.2h1.3c0.5,0,1-0.4,1-1v-0.9C301.5,59.7,301,59.3,300.5,59.3z"/>
</svg>
