<?xml version="1.0" encoding="UTF-8"?>
<svg version="1.1" xmlns="http://www.w3.org/2000/svg" width="300" height="50">
<path d="M0 0 C99 0 198 0 300 0 C300 16.5 300 33 300 50 C201 50 102 50 0 50 C0 33.5 0 17 0 0 Z M1 1 C1 16.84 1 32.68 1 49 C33.67 49 66.34 49 100 49 C100 33.16 100 17.32 100 1 C67.33 1 34.66 1 1 1 Z M102 1 C102 16.84 102 32.68 102 49 C117.51 49 133.02 49 149 49 C149 33.16 149 17.32 149 1 C133.49 1 117.98 1 102 1 Z M151 1 C151 16.84 151 32.68 151 49 C199.84 49 248.68 49 299 49 C299 33.16 299 17.32 299 1 C250.16 1 201.32 1 151 1 Z " fill="#000000" transform="translate(0,0)"/>
<path d="M0 0 C2.31 0 4.62 0 7 0 C7 1.32 7 2.64 7 4 C7.33 2.68 7.66 1.36 8 0 C10.64 0 13.28 0 16 0 C16.33 1.32 16.66 2.64 17 4 C17 2.68 17 1.36 17 0 C19.31 0 21.62 0 24 0 C23.91902093 4.39658178 23.80618201 8.7917871 23.6875 13.1875 C23.66494141 14.43337891 23.64238281 15.67925781 23.61914062 16.96289062 C23.58369141 18.16494141 23.54824219 19.36699219 23.51171875 20.60546875 C23.48553467 21.71043701 23.45935059 22.81540527 23.43237305 23.95385742 C22.94943442 27.35624321 22.03280169 29.25116306 20 32 C16.5609029 34.34483893 14.6160449 35.01080781 10.4375 34.9375 C6.68272475 33.91347039 4.7377889 32.7377889 2 30 C0.92044788 26.76134365 0.79558259 24.20844162 0.68359375 20.80078125 C0.64169922 19.59228516 0.59980469 18.38378906 0.55664062 17.13867188 C0.51732422 15.87603516 0.47800781 14.61339844 0.4375 13.3125 C0.39431641 12.03826172 0.35113281 10.76402344 0.30664062 9.45117188 C0.2004514 6.30089148 0.09840467 3.15053161 0 0 Z " fill="#6A1510" transform="translate(177,8)"/>
<path d="M0 0 C0.67167182 4.46403422 1.19498557 8.6383843 0.5 13.125 C-0.00916731 17.07104662 0.34980942 20.09885653 1 24 C1.03635763 25.9996695 1.04876598 28.00059462 1 30 C-0.98 30 -2.96 30 -5 30 C-5 28.33333333 -5 26.66666667 -5 25 C-5.66 25 -6.32 25 -7 25 C-7.33 26.65 -7.66 28.3 -8 30 C-9.98 30 -11.96 30 -14 30 C-14 29.34 -14 28.68 -14 28 C-13.34 28 -12.68 28 -12 28 C-11.7834375 26.1128125 -11.7834375 26.1128125 -11.5625 24.1875 C-11.26251314 21.57332877 -10.84186703 19.52560108 -10 17 C-11.98 17 -13.96 17 -16 17 C-16.66 15.68 -17.32 14.36 -18 13 C-14.535 12.505 -14.535 12.505 -11 12 C-11 11.34 -11 10.68 -11 10 C-11.639375 9.7525 -12.27875 9.505 -12.9375 9.25 C-15 8 -15 8 -15.75 5.875 C-15.8325 5.25625 -15.915 4.6375 -16 4 C-15.01 4 -14.02 4 -13 4 C-13 4.66 -13 5.32 -13 6 C-10.03 6.495 -10.03 6.495 -7 7 C-7.33 6.401875 -7.66 5.80375 -8 5.1875 C-9 3 -9 3 -9 0 C-5.67465243 -1.10844919 -3.37817425 -0.84454356 0 0 Z " fill="#000000" transform="translate(132,10)"/>
<path d="M0 0 C2.475 0.495 2.475 0.495 5 1 C5.33 1.99 5.66 2.98 6 4 C6.721875 3.835 7.44375 3.67 8.1875 3.5 C10.86427545 3.02412881 13.28949487 2.922557 16 3 C16 4.32 16 5.64 16 7 C16.33 5.02 16.66 3.04 17 1 C17.66 1 18.32 1 19 1 C19 1.66 19 2.32 19 3 C20.32 3 21.64 3 23 3 C23 2.01 23 1.02 23 0 C23.66 0 24.32 0 25 0 C25 0.99 25 1.98 25 3 C32.26 3 39.52 3 47 3 C47 2.34 47 1.68 47 1 C47.66 1 48.32 1 49 1 C49.98120464 4.05263664 49.98120464 5.94736336 49 9 C47.68 9 46.36 9 45 9 C45 7.68 45 6.36 45 5 C44.34 5 43.68 5 43 5 C42.67 6.32 42.34 7.64 42 9 C42 7.68 42 6.36 42 5 C41.34 5 40.68 5 40 5 C40 6.32 40 7.64 40 9 C34.39 9 28.78 9 23 9 C23 7.68 23 6.36 23 5 C22.34 5 21.68 5 21 5 C21 6.32 21 7.64 21 9 C14 9 7 9 0 9 C0 6.03 0 3.06 0 0 Z M2 2 C3 4 3 4 3 4 Z M12 5 C13 7 13 7 13 7 Z M34 5 C34 5.66 34 6.32 34 7 C34.66 7 35.32 7 36 7 C36 6.34 36 5.68 36 5 C35.34 5 34.68 5 34 5 Z " fill="#000000" transform="translate(214,12)"/>
<path d="M0 0 C2.4375 0.1875 2.4375 0.1875 5 1 C6.3125 3.0625 6.3125 3.0625 7 5 C8.32 5 9.64 5 11 5 C11 6.98 11 8.96 11 11 C11.66 11 12.32 11 13 11 C12.39516129 18.37903226 12.39516129 18.37903226 10.6875 21.0625 C9 22 9 22 6.8125 21.6875 C6.214375 21.460625 5.61625 21.23375 5 21 C5.66 19.68 6.32 18.36 7 17 C7.66 17 8.32 17 9 17 C9 16.34 9 15.68 9 15 C9.66 15 10.32 15 11 15 C10.67 14.01 10.34 13.02 10 12 C9.34 12 8.68 12 8 12 C7.01 13.485 7.01 13.485 6 15 C5.67 14.67 5.34 14.34 5 14 C0.85723125 13.75266863 0.85723125 13.75266863 -3 15 C-3 14.01 -3 13.02 -3 12 C-4.32 12 -5.64 12 -7 12 C-7.33 12.66 -7.66 13.32 -8 14 C-7.67 11.03 -7.34 8.06 -7 5 C-5.68 5 -4.36 5 -3 5 C-3 6.98 -3 8.96 -3 11 C-2.34 11 -1.68 11 -1 11 C-1.01160156 10.28972656 -1.02320313 9.57945313 -1.03515625 8.84765625 C-1.04869141 7.46900391 -1.04869141 7.46900391 -1.0625 6.0625 C-1.07410156 5.14597656 -1.08570313 4.22945312 -1.09765625 3.28515625 C-1 1 -1 1 0 0 Z " fill="#F3F0EF" transform="translate(187,19)"/>
<path d="M0 0 C2.97 0 5.94 0 9 0 C12 3 12 3 12.3984375 5.8125 C12.39070313 6.864375 12.38296875 7.91625 12.375 9 C12.38273437 10.051875 12.39046875 11.10375 12.3984375 12.1875 C12 15 12 15 9 18 C6.03 18 3.06 18 0 18 C0 12.06 0 6.12 0 0 Z M4 4 C4 4.99 4 5.98 4 7 C5.32 6.67 6.64 6.34 8 6 C7.67 5.34 7.34 4.68 7 4 C6.01 4 5.02 4 4 4 Z M4 11 C4 11.99 4 12.98 4 14 C5.32 14 6.64 14 8 14 C8 13.01 8 12.02 8 11 C6.68 11 5.36 11 4 11 Z " fill="#E40422" transform="translate(12,16)"/>
<path d="M0 0 C1.32 0 2.64 0 4 0 C5.32 2.31 6.64 4.62 8 7 C8.66 4.69 9.32 2.38 10 0 C10.99 0 11.98 0 13 0 C13 5.94 13 11.88 13 18 C8 17 8 17 6.63671875 15.37109375 C5.31835938 12.68554688 5.31835938 12.68554688 4 10 C3.67 12.64 3.34 15.28 3 18 C2.01 18 1.02 18 0 18 C0 12.06 0 6.12 0 0 Z " fill="#E40422" transform="translate(76,16)"/>
<path d="M0 0 C2.9375 0.375 2.9375 0.375 6 1 C6.33 1.66 6.66 2.32 7 3 C7.33 2.67 7.66 2.34 8 2 C11 1.875 11 1.875 14 2 C14.33 2.33 14.66 2.66 15 3 C15.66 2.01 16.32 1.02 17 0 C17.99 0.33 18.98 0.66 20 1 C20 1.99 20 2.98 20 4 C19.34 4 18.68 4 18 4 C18 4.66 18 5.32 18 6 C17.34 6 16.68 6 16 6 C14.98888907 9.04913228 14.98888907 9.04913228 16 12 C12.05923635 12.866968 9.60334117 13.20884887 5.75 11.875 C2.70806259 9.80095177 1.44426847 8.36995976 0 5 C-0.1875 2.1875 -0.1875 2.1875 0 0 Z " fill="#ABA59A" transform="translate(178,30)"/>
<path d="M0 0 C8 0 8 0 10.5 1.0625 C12.79395236 4.02552179 12.38888282 6.37042697 12 10 C11.01 11.485 11.01 11.485 10 13 C10.66 13.66 11.32 14.32 12 15 C12 15.99 12 16.98 12 18 C7.68607774 17.5206753 5.83430453 16.2542015 3 13 C3 14.65 3 16.3 3 18 C2.01 18 1.02 18 0 18 C0 12.06 0 6.12 0 0 Z M3 4 C3 5.65 3 7.3 3 9 C4.65 8.67 6.3 8.34 8 8 C7.67 6.68 7.34 5.36 7 4 C5.68 4 4.36 4 3 4 Z " fill="#E40422" transform="translate(41,16)"/>
<path d="M0 0 C1.32 0 2.64 0 4 0 C4 1.65 4 3.3 4 5 C6.64 5 9.28 5 12 5 C12 9.29 12 13.58 12 18 C11.67 18 11.34 18 11 18 C10.67 16.02 10.34 14.04 10 12 C8.68 12.33 7.36 12.66 6 13 C5.34 11.35 4.68 9.7 4 8 C2.68 8 1.36 8 0 8 C-0.33 11.3 -0.66 14.6 -1 18 C-1.66 18 -2.32 18 -3 18 C-3 16.02 -3 14.04 -3 12 C-4.32 12 -5.64 12 -7 12 C-7 13.98 -7 15.96 -7 18 C-7.33 18 -7.66 18 -8 18 C-8 13.71 -8 9.42 -8 5 C-5.36 5 -2.72 5 0 5 C0 3.35 0 1.7 0 0 Z " fill="#E2352B" transform="translate(187,12)"/>
<path d="M0 0 C3.3 0 6.6 0 10 0 C10 1.32 10 2.64 10 4 C8.02 4 6.04 4 4 4 C4 4.99 4 5.98 4 7 C5.98 7 7.96 7 10 7 C10 8.32 10 9.64 10 11 C8.02 11 6.04 11 4 11 C4 11.99 4 12.98 4 14 C5.98 14 7.96 14 10 14 C10 15.32 10 16.64 10 18 C6.7 18 3.4 18 0 18 C0 12.06 0 6.12 0 0 Z " fill="#E40422" transform="translate(27,16)"/>
<path d="M0 0 C1.32 0 2.64 0 4 0 C4 4.62 4 9.24 4 14 C5.98 14 7.96 14 10 14 C10 15.32 10 16.64 10 18 C6.7 18 3.4 18 0 18 C0 12.06 0 6.12 0 0 Z " fill="#E40422" transform="translate(56,16)"/>
<path d="M0 0 C0.99 1.485 0.99 1.485 2 3 C4.62697064 3.22137393 7.00893964 3.28162025 9.625 3.1875 C10.33140625 3.17396484 11.0378125 3.16042969 11.765625 3.14648438 C13.51074128 3.1111104 15.25546608 3.05730221 17 3 C17 4.65 17 6.3 17 8 C14.10765685 8.82638376 12.11257569 9 9 9 C8.01 9.33 7.02 9.66 6 10 C3.99124558 9.72428861 1.98821313 9.39764263 0 9 C0 6.03 0 3.06 0 0 Z M3 5 C4 7 4 7 4 7 Z M6 5 C6 5.99 6 6.98 6 8 C6.66 8 7.32 8 8 8 C8 7.01 8 6.02 8 5 C7.34 5 6.68 5 6 5 Z " fill="#000000" transform="translate(232,26)"/>
<path d="M0 0 C0.66 0.66 1.32 1.32 2 2 C3.32 2 4.64 2 6 2 C6 3.98 6 5.96 6 8 C6.66 8 7.32 8 8 8 C7.39516129 15.37903226 7.39516129 15.37903226 5.6875 18.0625 C4 19 4 19 1.8125 18.6875 C1.214375 18.460625 0.61625 18.23375 0 18 C0.66 16.68 1.32 15.36 2 14 C2.66 14 3.32 14 4 14 C4 13.34 4 12.68 4 12 C4.66 12 5.32 12 6 12 C5.67 11.01 5.34 10.02 5 9 C3.35 8.67 1.7 8.34 0 8 C0 5.36 0 2.72 0 0 Z " fill="#E7CECD" transform="translate(192,22)"/>
<path d="M0 0 C1.32 0 2.64 0 4 0 C4 5.94 4 11.88 4 18 C2.68 18 1.36 18 0 18 C0 12.06 0 6.12 0 0 Z " fill="#E40422" transform="translate(68,16)"/>
<path d="M0 0 C-0.33 7.26 -0.66 14.52 -1 22 C-1.33 22 -1.66 22 -2 22 C-2 17.71 -2 13.42 -2 9 C-4.64 9 -7.28 9 -10 9 C-10 7.68 -10 6.36 -10 5 C-8.68 5 -7.36 5 -6 5 C-6 4.01 -6 3.02 -6 2 C-2.25 0 -2.25 0 0 0 Z " fill="#A21D15" transform="translate(201,8)"/>
<path d="M0 0 C2.375 -0.125 2.375 -0.125 5 0 C5.66 0.66 6.32 1.32 7 2 C8.32 2 9.64 2 11 2 C11 3.98 11 5.96 11 8 C9.3125 8.6875 9.3125 8.6875 7 9 C4.25 7.5625 4.25 7.5625 2 6 C2 6.66 2 7.32 2 8 C1.34 8 0.68 8 0 8 C0 5.36 0 2.72 0 0 Z M2 2 C2 2.66 2 3.32 2 4 C2.66 4 3.32 4 4 4 C4 3.34 4 2.68 4 2 C3.34 2 2.68 2 2 2 Z M7 4 C7.33 4.99 7.66 5.98 8 7 C8.66 6.34 9.32 5.68 10 5 C9.01 4.67 8.02 4.34 7 4 Z " fill="#000000" transform="translate(214,27)"/>
<path d="M0 0 C0.99 0.33 1.98 0.66 3 1 C3 1.99 3 2.98 3 4 C2.34 4 1.68 4 1 4 C1 4.66 1 5.32 1 6 C0.34 6 -0.32 6 -1 6 C-1.144375 6.639375 -1.28875 7.27875 -1.4375 7.9375 C-2 10 -2 10 -3 11 C-4.99958364 11.04080783 -7.00045254 11.04254356 -9 11 C-9.33 10.34 -9.66 9.68 -10 9 C-8.02 9 -6.04 9 -4 9 C-2.66666667 6 -2.66666667 6 -4 3 C-5.32 3 -6.64 3 -8 3 C-8 3.66 -8 4.32 -8 5 C-8.66 5 -9.32 5 -10 5 C-9.67 4.01 -9.34 3.02 -9 2 C-7.00045254 1.95745644 -4.99958364 1.95919217 -3 2 C-2.67 2.33 -2.34 2.66 -2 3 C-1.34 2.01 -0.68 1.02 0 0 Z " fill="#CB534D" transform="translate(195,30)"/>
<path d="M0 0 C0.99 0.495 0.99 0.495 2 1 C2 1.66 2 2.32 2 3 C2.66 3.33 3.32 3.66 4 4 C3.34 4 2.68 4 2 4 C2 4.66 2 5.32 2 6 C2.66 6 3.32 6 4 6 C4.66 5.34 5.32 4.68 6 4 C6.66 4.33 7.32 4.66 8 5 C8 5.99 8 6.98 8 8 C5.69 8 3.38 8 1 8 C1 12.29 1 16.58 1 21 C0.67 21 0.34 21 0 21 C0 14.07 0 7.14 0 0 Z " fill="#AF1F16" transform="translate(178,9)"/>
<path d="M0 0 C2.31 0 4.62 0 7 0 C7 1.32 7 2.64 7 4 C7.99 3.67 8.98 3.34 10 3 C10 4.98 10 6.96 10 9 C9.01 8.34 8.02 7.68 7 7 C6.01 7.495 6.01 7.495 5 8 C4.34 7.67 3.68 7.34 3 7 C2.375 4.4375 2.375 4.4375 2 2 C1.01 2.495 1.01 2.495 0 3 C0 2.01 0 1.02 0 0 Z " fill="#861913" transform="translate(177,8)"/>
<path d="M0 0 C0.66 0.33 1.32 0.66 2 1 C1.34 2.98 0.68 4.96 0 7 C0.66 7.33 1.32 7.66 2 8 C-0.64 8 -3.28 8 -6 8 C-6 6.68 -6 5.36 -6 4 C-4.68 4 -3.36 4 -2 4 C-2 3.01 -2 2.02 -2 1 C-1.34 0.67 -0.68 0.34 0 0 Z " fill="#BF2118" transform="translate(197,9)"/>
<path d="M0 0 C0.66 0 1.32 0 2 0 C1.39873418 5.41139241 1.39873418 5.41139241 -0.3125 7.9375 C-2 9 -2 9 -4.1875 8.6875 C-4.785625 8.460625 -5.38375 8.23375 -6 8 C-5.34 6.68 -4.68 5.36 -4 4 C-3.34 4 -2.68 4 -2 4 C-2 3.34 -2 2.68 -2 2 C-1.34 2 -0.68 2 0 2 C0 1.34 0 0.68 0 0 Z " fill="#C4C7C5" transform="translate(198,32)"/>
<path d="M0 0 C2.475 0.495 2.475 0.495 5 1 C5 2.65 5 4.3 5 6 C3.35 6 1.7 6 0 6 C0 4.02 0 2.04 0 0 Z " fill="#000000" transform="translate(226,29)"/>
<path d="M0 0 C1.32 0 2.64 0 4 0 C3.67 1.65 3.34 3.3 3 5 C2.01 4.67 1.02 4.34 0 4 C0 2.68 0 1.36 0 0 Z " fill="#BAA6A6" transform="translate(187,12)"/>
<path d="M0 0 C0.99 0.33 1.98 0.66 3 1 C3 1.99 3 2.98 3 4 C2.34 4 1.68 4 1 4 C0.67 4.66 0.34 5.32 0 6 C-0.38218767 4.34385343 -0.71395102 2.67542976 -1 1 C-0.67 0.67 -0.34 0.34 0 0 Z " fill="#1D8240" transform="translate(195,30)"/>
<path d="M0 0 C0.99 0 1.98 0 3 0 C3 1.65 3 3.3 3 5 C2.01 5.33 1.02 5.66 0 6 C0 4.02 0 2.04 0 0 Z " fill="#FEFEFE" transform="translate(181,24)"/>
</svg>
