<?xml version="1.0" standalone="no"?>
<!DOCTYPE svg PUBLIC "-//W3C//DTD SVG 20010904//EN"
 "http://www.w3.org/TR/2001/REC-SVG-20010904/DTD/svg10.dtd">
<svg version="1.0" xmlns="http://www.w3.org/2000/svg"
 width="7063.000000pt" height="1180.000000pt" viewBox="0 0 7063.000000 1180.000000"
 preserveAspectRatio="xMidYMid meet">

<g transform="translate(0.000000,1180.000000) scale(0.100000,-0.100000)"
fill="#000000" stroke="none">
<path d="M0 5900 l0 -5900 35308 0 35309 0 6 2027 c4 1114 7 3769 7 5900 l0
3873 -35315 0 -35315 0 0 -5900z m23620 -5 l0 -5665 -11690 0 -11690 0 0 5665
0 5665 11690 0 11690 0 0 -5665z m11570 0 l0 -5665 -5665 0 -5665 0 0 5665 0
5665 5665 0 5665 0 0 -5665z m35200 -5 l0 -5660 -17475 0 -17475 0 0 5660 0
5660 17475 0 17475 0 0 -5660z"/>
<path d="M2983 7859 c-12 -6 -24 -21 -27 -33 -3 -11 -6 -882 -6 -1934 l0
-1913 25 -25 26 -25 767 4 c655 3 780 6 857 20 557 101 873 433 926 971 20
206 -14 412 -96 582 -78 160 -192 287 -352 391 -46 29 -83 57 -83 61 0 4 34
32 76 62 172 123 297 304 356 518 19 66 22 104 22 267 1 164 -2 202 -22 278
-105 418 -400 675 -876 764 -67 13 -211 16 -826 19 -521 2 -752 0 -767 -7z
m1421 -668 c100 -27 170 -67 233 -134 87 -92 123 -185 123 -322 0 -144 -37
-242 -126 -336 -59 -61 -142 -108 -239 -135 -78 -22 -716 -34 -740 -14 -13 11
-15 82 -15 481 0 435 1 469 18 479 11 7 119 9 342 7 292 -4 333 -7 404 -26z
m51 -1615 c211 -59 348 -208 376 -410 29 -218 -67 -415 -249 -509 -119 -61
-128 -62 -552 -62 l-385 0 -3 489 c-2 370 1 492 10 503 19 23 717 13 803 -11z"/>
<path d="M6510 7863 c-41 -15 -40 47 -40 -1963 0 -1648 2 -1929 14 -1946 14
-19 38 -19 1063 -21 832 -2 1053 0 1073 10 l25 13 3 300 c2 271 1 303 -14 315
-14 12 -145 15 -743 19 l-726 5 -3 489 c-1 353 1 493 9 502 9 12 135 14 730
14 639 0 719 2 733 16 14 13 16 55 16 304 0 249 -2 291 -16 304 -14 14 -94 16
-733 16 -544 0 -720 3 -729 12 -9 9 -12 129 -12 480 0 452 1 468 19 478 13 7
261 10 733 10 542 0 717 3 726 12 9 9 12 91 12 309 0 296 0 298 -22 313 -20
14 -137 16 -1063 15 -572 0 -1047 -3 -1055 -6z"/>
<path d="M9702 7854 l-22 -15 0 -1939 0 -1939 22 -15 c19 -14 67 -16 321 -16
l298 0 24 25 25 24 0 539 c0 405 3 541 12 550 15 15 440 17 467 2 10 -5 193
-259 406 -564 317 -455 393 -557 418 -565 39 -14 735 -15 771 -1 18 6 26 17
26 33 0 28 -9 40 -505 711 -198 268 -360 492 -360 499 0 6 50 37 110 67 376
188 607 477 702 880 34 144 43 414 19 576 -96 656 -593 1089 -1322 1153 -67 6
-396 11 -754 11 -559 0 -638 -2 -658 -16z m1298 -644 c382 -31 635 -226 711
-547 31 -128 24 -324 -15 -438 -36 -105 -75 -172 -145 -247 -101 -110 -238
-184 -416 -224 -93 -22 -727 -33 -750 -14 -13 11 -15 111 -15 736 0 678 1 724
18 733 22 13 458 14 612 1z"/>
<path d="M13373 7855 l-23 -16 0 -1939 0 -1940 23 -15 c21 -14 137 -15 1011
-13 964 3 988 3 1002 22 11 16 14 75 14 307 0 248 -2 290 -16 303 -8 9 -16 17
-17 18 -1 2 -299 5 -662 8 l-660 5 -5 1622 c-4 1311 -7 1624 -18 1635 -10 10
-84 14 -320 16 -267 2 -310 1 -329 -13z"/>
<path d="M16230 7863 c-41 -15 -40 47 -40 -1963 0 -1648 2 -1929 14 -1946 14
-18 29 -19 329 -19 251 0 317 3 330 14 16 12 17 161 17 1952 l0 1938 -22 15
c-19 14 -66 16 -318 15 -162 0 -302 -3 -310 -6z"/>
<path d="M17960 7863 c-41 -15 -40 47 -40 -1963 0 -1647 2 -1929 14 -1946 14
-18 31 -19 319 -22 289 -3 305 -2 328 17 l24 19 5 1326 c3 873 8 1326 15 1327
6 0 346 -594 756 -1321 411 -727 756 -1332 768 -1344 21 -21 29 -21 371 -24
l350 -3 25 25 25 25 -2 1930 c-3 1568 -5 1932 -16 1943 -19 19 -635 19 -654 0
-10 -10 -14 -270 -18 -1344 -3 -913 -8 -1332 -15 -1335 -6 -2 -346 592 -755
1319 -410 727 -755 1334 -767 1348 l-21 25 -349 2 c-191 1 -355 -1 -363 -4z"/>
<path d="M30020 9464 c-182 -21 -337 -76 -464 -164 -56 -38 -123 -49 -336 -54
-232 -6 -221 5 -195 -214 15 -130 37 -188 82 -217 12 -9 31 -32 42 -53 25 -48
66 -92 86 -92 9 0 21 14 27 31 l11 32 71 -7 c64 -6 99 -1 148 19 23 9 40 -52
27 -99 -23 -83 -86 -138 -177 -156 -94 -19 -92 -17 -92 -60 0 -86 34 -129 129
-162 85 -30 154 -93 171 -158 24 -87 -27 -229 -130 -360 -92 -117 -138 -180
-142 -190 -2 -6 -270 89 -602 214 -483 181 -605 230 -630 255 -17 17 -60 80
-95 140 -115 201 -185 244 -399 245 -108 1 -115 -1 -133 -23 -36 -44 -21 -98
78 -281 33 -63 89 -178 123 -255 34 -77 74 -153 89 -168 14 -16 217 -173 451
-350 234 -177 501 -379 593 -449 l168 -127 -640 -321 c-556 -277 -647 -320
-686 -320 -25 0 -89 15 -147 36 -177 61 -305 56 -418 -16 -95 -61 -126 -120
-84 -160 11 -9 149 -95 308 -189 215 -129 301 -175 340 -183 47 -9 99 0 669
116 340 69 622 126 627 126 5 0 11 -35 15 -77 19 -205 98 -649 134 -746 7 -18
-5 -36 -74 -113 -321 -355 -517 -790 -566 -1254 -22 -212 0 -516 55 -745 8
-33 13 -61 11 -63 -2 -2 -41 -8 -87 -13 -251 -28 -425 -120 -491 -262 -28 -58
-53 -168 -43 -192 5 -14 63 -15 545 -13 527 3 540 3 567 24 42 31 62 79 79
194 38 251 77 390 169 605 87 201 226 415 372 574 l59 63 31 -43 c71 -103 243
-295 395 -444 184 -180 326 -297 508 -420 104 -71 120 -85 100 -89 -155 -30
-205 -42 -272 -68 -162 -62 -256 -178 -281 -350 l-7 -48 516 0 c459 0 521 2
552 16 40 20 81 69 89 110 5 26 -165 1160 -264 1762 -36 220 -37 232 -20 232
51 0 113 58 124 115 5 29 -5 57 -65 177 -156 316 -235 650 -262 1107 -13 221
-2 436 31 640 36 217 65 316 205 691 56 150 107 345 131 500 21 137 24 425 5
545 -35 230 -90 437 -152 574 -26 57 -27 66 -15 80 33 36 56 106 56 172 0 210
-221 358 -392 262 l-54 -31 -54 34 c-55 34 -166 75 -255 92 -60 12 -216 21
-265 16z"/>
<path d="M41837 9744 c-4 -4 -7 -109 -7 -234 l0 -227 95 -82 95 -83 0 -2492
c0 -2117 2 -2509 14 -2602 95 -713 460 -1326 1031 -1730 379 -269 792 -414
1289 -455 175 -14 364 -3 591 37 910 157 1672 835 1938 1724 31 103 45 161 77
325 27 135 30 424 30 2762 0 2074 2 2434 14 2445 8 7 51 44 95 83 l81 69 -2
231 -3 230 -165 0 -165 0 -3 -113 -3 -113 -112 3 -112 3 -3 113 -3 112 -149 0
c-81 0 -155 -3 -164 -6 -13 -5 -16 -25 -16 -115 l0 -110 -112 3 -113 3 -2 104
c0 56 -5 107 -10 112 -5 5 -78 8 -164 7 l-154 -3 -3 -232 -2 -232 90 -78 90
-78 0 -137 0 -137 -152 -3 -153 -3 -3 -103 -3 -103 -112 3 -112 3 -3 103 -3
102 -159 0 -160 0 0 134 0 134 95 79 95 78 -2 235 -3 235 -165 0 -165 0 -3
-113 -3 -113 -107 3 -107 3 -5 110 -5 110 -160 0 -160 0 -5 -110 -5 -110 -112
-3 -113 -3 0 110 c0 133 15 123 -185 119 l-140 -3 -3 -235 -2 -235 77 -65 c43
-36 83 -72 90 -80 8 -10 12 -59 13 -147 l0 -132 -157 -3 -158 -3 -3 -102 -3
-103 -109 0 -109 0 -3 103 -3 102 -157 3 -158 3 0 133 0 133 33 29 c18 16 60
53 95 83 l62 53 -2 232 -3 231 -154 3 c-104 2 -158 -1 -167 -9 -10 -8 -14 -39
-14 -115 l0 -104 -110 0 -110 0 0 110 c0 132 16 122 -190 118 l-145 -3 -5
-110 -5 -110 -107 -3 -107 -3 -3 113 -3 113 -161 3 c-88 1 -163 -1 -167 -4z
m3043 -1125 c0 -378 -4 -409 -65 -505 -41 -63 -97 -108 -177 -141 -56 -22 -73
-25 -153 -20 -129 6 -209 49 -284 151 -71 96 -74 117 -79 509 l-3 347 380 0
381 0 0 -341z m-185 -1404 c88 -23 215 -90 289 -152 103 -85 175 -191 235
-343 l25 -65 6 -985 5 -985 168 -3 167 -2 0 551 c0 533 1 554 21 623 68 227
218 375 414 407 59 10 82 10 146 -5 97 -21 212 -94 268 -169 43 -57 101 -166
101 -189 0 -8 4 -18 9 -23 24 -25 31 -164 31 -667 l0 -528 178 -2 177 -3 3
-195 c11 -764 -209 -1353 -693 -1849 -358 -367 -730 -572 -1260 -694 -127 -30
-257 -41 -480 -41 -255 0 -365 12 -563 60 -564 137 -1043 453 -1393 919 -148
197 -289 471 -361 705 -90 290 -118 498 -118 876 l0 224 175 0 175 0 0 493 c0
524 7 631 49 734 55 138 139 243 244 301 278 156 592 -14 687 -371 18 -67 20
-113 20 -615 l0 -542 168 2 167 3 5 990 c5 917 6 992 23 1024 9 19 17 39 17
45 0 27 75 158 125 219 52 63 152 151 185 164 8 3 22 11 30 18 23 18 147 65
214 80 77 18 258 13 341 -10z"/>
<path d="M44553 8909 c-7 -7 -28 -15 -47 -18 l-35 -6 15 -32 c9 -18 21 -34 27
-36 7 -2 -1 -2 -18 0 -28 3 -29 2 -6 -7 15 -7 21 -15 17 -26 -4 -11 1 -18 14
-21 30 -8 24 -28 -13 -48 -33 -17 -35 -17 -101 5 -63 21 -69 25 -86 65 -22 51
-33 59 -66 51 -20 -5 -24 -11 -18 -24 4 -9 14 -36 22 -60 15 -43 88 -119 140
-144 40 -20 36 -33 -19 -58 -46 -22 -52 -23 -60 -8 -5 9 -21 31 -35 47 -22 26
-28 29 -44 18 -11 -6 -21 -18 -23 -27 -5 -24 22 -73 56 -100 28 -22 40 -25
113 -24 l81 2 18 -36 c16 -35 16 -37 -1 -47 -80 -46 -120 -119 -108 -197 l7
-42 -24 15 c-40 26 -68 29 -79 9 -18 -33 -11 -48 26 -60 20 -7 48 -18 62 -26
48 -25 70 -18 81 24 14 49 52 104 86 122 22 12 29 12 32 3 3 -7 22 -34 44 -60
39 -48 40 -58 4 -65 -15 -2 -20 -11 -20 -33 0 -26 4 -30 32 -33 26 -3 40 5 78
42 39 37 46 48 39 68 -4 13 -8 64 -9 113 -1 50 -7 99 -13 110 -6 11 -17 56
-25 100 -12 68 -12 87 -1 126 8 25 13 70 13 100 -1 30 1 91 5 136 7 94 10 90
-89 92 -35 1 -65 -3 -72 -10z"/>
<path d="M43103 4737 c-38 -40 -78 -86 -88 -103 -43 -67 -45 -68 -77 -25 -38
52 -91 78 -124 60 -19 -10 -27 -10 -36 -1 -15 15 -50 16 -64 2 -8 -8 -19 -7
-37 1 -22 10 -30 9 -44 -3 -10 -8 -38 -18 -63 -22 -59 -9 -80 -30 -80 -77 0
-40 -19 -59 -59 -59 -11 0 -33 -17 -51 -40 -17 -22 -37 -40 -44 -40 -21 0 -49
-38 -42 -56 4 -11 -3 -27 -19 -44 -23 -24 -25 -30 -14 -48 10 -17 10 -23 -4
-37 -19 -19 -22 -41 -7 -50 7 -4 3 -19 -10 -39 -11 -19 -20 -41 -20 -50 0 -27
29 -31 47 -7 9 14 21 20 30 16 22 -8 43 13 43 42 0 15 5 23 12 21 15 -5 30
-72 17 -76 -5 -2 -19 -12 -31 -23 -23 -19 -23 -19 -4 -34 19 -14 19 -16 -7
-52 -25 -35 -26 -39 -10 -50 15 -12 15 -14 0 -31 -19 -21 -23 -52 -7 -52 6 0
8 -10 5 -23 -4 -15 -1 -28 9 -36 9 -8 16 -29 16 -50 0 -20 7 -44 14 -54 10
-13 11 -26 2 -58 -8 -33 -8 -42 4 -49 25 -16 52 -11 91 16 l37 26 22 -22 c20
-20 24 -21 37 -7 13 12 20 13 34 4 16 -10 21 -8 34 10 13 18 20 21 40 13 28
-11 55 -4 55 14 1 28 15 36 42 24 20 -10 27 -22 31 -53 14 -106 30 -172 45
-194 9 -13 22 -32 28 -42 6 -10 18 -27 27 -37 10 -10 17 -26 17 -36 0 -36 31
-66 68 -66 19 0 43 -7 53 -16 13 -12 22 -13 38 -5 11 6 35 11 55 11 25 0 40 7
55 26 12 15 21 33 21 40 0 7 29 43 63 79 67 70 84 107 106 229 17 94 13 145
-14 204 -29 63 -30 72 -10 72 29 0 14 41 -31 84 -45 43 -52 73 -14 61 12 -4
23 3 36 22 10 16 17 31 16 36 -1 4 8 7 19 7 17 0 20 5 17 25 -4 17 -1 25 8 25
17 0 19 41 3 57 -8 8 -4 17 12 32 21 20 22 22 5 40 -11 12 -14 21 -7 26 20 12
12 45 -14 55 -21 8 -24 14 -19 34 7 29 -17 46 -66 46 -44 0 -70 17 -70 44 0
18 -13 30 -60 54 -33 18 -69 32 -80 32 -11 0 -20 3 -20 6 0 3 38 48 85 99 47
52 85 99 85 104 0 26 -15 41 -39 41 -21 0 -44 -17 -98 -73z m-683 -527 c0 -5
-5 -10 -11 -10 -5 0 -7 5 -4 10 3 6 8 10 11 10 2 0 4 -4 4 -10z"/>
<path d="M45777 4803 c-19 -18 0 -53 73 -136 44 -50 80 -95 80 -99 0 -5 -7 -8
-15 -8 -8 0 -42 -14 -75 -32 -47 -24 -60 -36 -60 -54 0 -29 -27 -44 -77 -44
-46 0 -63 -14 -63 -52 0 -16 -5 -28 -13 -28 -25 0 -36 -21 -25 -46 8 -17 8
-27 -2 -39 -11 -13 -10 -19 5 -35 16 -17 16 -24 6 -47 -11 -23 -10 -29 3 -39
9 -6 16 -21 16 -33 0 -11 6 -21 13 -21 6 -1 21 -15 33 -33 14 -22 27 -31 42
-30 34 4 27 -25 -17 -66 -48 -44 -63 -81 -32 -81 12 0 21 -1 21 -2 0 -2 -11
-30 -25 -63 -13 -33 -25 -79 -25 -103 0 -53 18 -180 29 -207 5 -11 14 -35 21
-52 7 -18 19 -33 26 -33 8 0 14 -5 14 -10 0 -6 18 -30 40 -54 22 -24 40 -48
40 -54 0 -6 12 -24 26 -41 20 -24 34 -31 60 -31 19 0 43 -5 54 -12 15 -10 22
-9 38 5 10 9 35 17 55 17 30 0 39 5 52 30 8 16 15 33 15 39 0 5 20 40 45 77
35 52 45 76 45 108 0 23 4 46 9 51 5 6 11 33 13 60 3 44 6 52 32 63 36 15 32
17 45 -18 11 -33 21 -36 53 -19 18 10 24 8 39 -12 15 -20 21 -22 37 -12 15 9
22 8 34 -4 14 -13 18 -12 36 8 l21 22 39 -26 c67 -47 115 -28 95 38 -8 26 -8
38 3 52 7 10 14 34 14 54 0 20 7 42 15 49 9 7 13 21 9 35 -3 13 -1 26 5 30 8
4 6 16 -6 37 -14 23 -15 32 -5 35 18 7 14 38 -8 58 -25 22 -25 34 -2 51 16 13
16 15 -6 33 -12 11 -26 21 -31 23 -13 4 2 71 17 76 7 2 12 -6 12 -21 0 -29 21
-50 43 -41 10 3 20 -2 27 -15 6 -12 17 -21 24 -21 24 0 27 30 7 69 -12 23 -16
42 -11 51 5 9 3 24 -7 41 -14 23 -14 31 -4 43 11 13 8 20 -13 41 -17 16 -25
35 -24 52 2 17 -4 30 -17 37 -11 6 -39 30 -63 54 -24 23 -52 42 -64 42 -34 0
-58 28 -52 60 8 36 -24 66 -80 75 -22 4 -49 14 -58 22 -15 13 -23 14 -47 4
-23 -10 -33 -10 -49 0 -16 10 -26 10 -47 1 -20 -9 -31 -10 -41 -1 -22 18 -79
-7 -117 -52 -19 -21 -37 -39 -40 -39 -3 0 -19 19 -35 43 -56 80 -166 187 -193
187 -14 0 -29 -3 -32 -7z"/>
<path d="M44310 4320 c-285 -49 -526 -187 -709 -406 -59 -70 -171 -247 -171
-269 0 -4 -7 -21 -15 -38 -8 -18 -29 -79 -46 -137 -32 -103 -33 -109 -33 -300
0 -183 1 -201 27 -293 98 -350 311 -613 627 -772 155 -78 303 -110 515 -110
266 0 435 50 650 190 247 161 405 389 494 710 62 227 30 528 -82 768 -58 123
-122 214 -226 320 -181 186 -392 296 -651 338 -141 23 -243 23 -380 -1z m56
-336 c-9 -22 11 -54 34 -54 19 0 20 -8 20 -264 0 -184 -3 -267 -11 -272 -7 -4
-88 70 -195 177 -180 180 -184 184 -178 218 5 27 3 37 -12 48 -18 14 -18 15 6
33 65 50 255 127 319 129 17 1 22 -3 17 -15z m362 1 c74 -19 203 -78 253 -116
l23 -17 -24 -20 c-23 -18 -24 -22 -10 -46 14 -27 13 -28 -172 -213 -133 -133
-191 -184 -202 -180 -14 6 -16 37 -16 267 l0 261 30 10 c24 9 30 17 30 40 0
34 6 35 88 14z m-886 -352 c16 -14 22 -14 44 -3 24 14 29 10 205 -166 129
-129 179 -185 177 -199 -3 -19 -11 -20 -268 -20 l-264 0 -6 25 c-5 21 -12 25
-39 23 -25 -1 -31 2 -27 15 2 10 8 36 11 59 4 24 11 45 16 49 5 3 9 13 9 22 0
21 53 135 83 179 25 37 33 40 59 16z m1402 -50 c41 -75 96 -222 96 -259 0 -18
-5 -24 -23 -24 -28 0 -47 -17 -47 -42 0 -17 -16 -18 -265 -18 l-265 0 0 23 c0
16 53 75 180 202 176 176 179 179 205 165 22 -12 28 -12 42 3 10 9 22 17 28
17 6 0 28 -30 49 -67z m-683 -362 c37 -37 38 -78 4 -115 -34 -37 -95 -37 -124
0 -68 86 43 192 120 115z m-291 -159 c0 -23 -365 -388 -374 -373 -10 16 -47
14 -67 -5 -15 -14 -19 -13 -39 16 -49 68 -107 208 -123 298 -6 31 -6 32 28 32
27 0 35 4 35 18 0 10 3 22 7 25 3 4 125 7 270 7 244 0 263 -1 263 -18z m1002
-4 c2 -18 11 -24 36 -26 26 -3 32 -7 32 -27 0 -60 -82 -259 -129 -315 -19 -23
-22 -24 -31 -7 -12 19 -55 23 -66 6 -9 -15 -374 350 -374 373 0 17 19 18 264
18 l265 0 3 -22z m-852 -392 l0 -263 -25 -11 c-14 -6 -26 -17 -26 -24 -1 -7
-2 -20 -3 -28 0 -8 -5 -14 -11 -14 -96 14 -222 61 -304 115 -47 31 -49 34 -30
47 21 14 26 57 8 68 -15 9 360 384 378 377 10 -4 13 -57 13 -267z m380 89
c181 -181 184 -185 170 -210 -12 -23 -11 -27 8 -48 21 -22 21 -24 5 -38 -49
-39 -168 -95 -245 -114 -34 -9 -71 -18 -80 -21 -14 -4 -18 1 -18 25 0 24 -7
34 -30 46 l-30 16 0 252 c0 242 4 277 30 277 3 0 88 -83 190 -185z"/>
<path d="M55872 8822 c-10 -7 -12 -203 -10 -948 l3 -939 89 -3 c65 -2 92 1 98
10 4 7 8 99 8 204 l0 190 61 72 c34 40 66 72 73 72 6 0 42 -53 81 -118 192
-324 249 -418 259 -424 17 -12 204 -9 211 2 4 6 -46 99 -111 208 -64 108 -140
235 -167 282 -27 47 -60 101 -72 120 -12 19 -30 50 -39 68 l-17 33 63 75 c35
42 77 93 93 114 17 21 74 90 128 154 60 70 97 123 95 134 -3 15 -18 17 -107
20 l-103 3 -36 -38 c-19 -21 -54 -61 -76 -89 -104 -129 -306 -372 -320 -383
-15 -12 -16 40 -16 576 0 445 -3 592 -12 601 -14 14 -155 17 -176 4z"/>
<path d="M50472 8762 c-10 -6 -12 -197 -10 -918 l3 -909 320 -3 c413 -3 490
11 621 115 245 196 221 632 -45 788 -28 17 -51 33 -51 37 0 4 15 17 33 29 121
84 197 229 197 380 0 82 -33 200 -72 261 -39 62 -124 139 -183 167 -107 50
-141 54 -480 58 -176 2 -326 0 -333 -5z m703 -228 c101 -53 155 -149 155 -273
-1 -121 -56 -213 -160 -264 l-65 -32 -222 -3 -223 -4 0 307 0 306 228 -3 227
-3 60 -31z m0 -794 c41 -15 75 -38 107 -71 69 -70 82 -105 82 -224 1 -121 -19
-170 -95 -239 -77 -70 -116 -78 -381 -83 l-228 -5 0 327 0 327 228 -4 c207 -4
232 -7 287 -28z"/>
<path d="M54496 8710 c-109 -34 -135 -178 -47 -251 30 -24 45 -29 89 -29 88 0
142 54 142 142 0 99 -91 167 -184 138z"/>
<path d="M61710 8659 c-41 -23 -78 -46 -82 -53 -4 -6 -8 -111 -8 -233 l0 -222
-87 -3 -88 -3 -3 -77 c-3 -93 5 -101 106 -97 l67 3 5 -520 c3 -285 6 -520 8
-522 1 -1 44 -1 95 0 l92 3 5 519 5 519 75 -2 c41 -1 81 2 88 7 9 6 12 31 10
88 l-3 79 -87 3 -88 3 -2 272 c-3 232 -5 272 -18 274 -8 2 -49 -15 -90 -38z"/>
<path d="M52335 8166 c-263 -49 -432 -225 -481 -501 -18 -102 -18 -151 1 -261
30 -169 131 -331 258 -411 134 -84 346 -115 507 -74 47 12 116 39 153 59 72
39 177 125 177 145 0 15 -76 104 -100 117 -15 8 -29 1 -72 -36 -97 -83 -199
-124 -313 -124 -125 0 -214 36 -296 120 -58 60 -100 142 -114 227 -6 36 -4 43
14 52 14 8 166 11 483 11 l463 -1 3 105 c2 94 0 113 -27 191 -95 274 -370 433
-656 381z m239 -196 c71 -27 128 -69 170 -127 36 -50 82 -175 71 -193 -4 -6
-139 -10 -381 -10 l-374 0 0 28 c0 38 36 127 68 171 26 35 64 71 106 101 73
52 241 66 340 30z"/>
<path d="M55463 8165 c-77 -17 -150 -56 -200 -106 -21 -21 -41 -39 -45 -39 -5
0 -8 27 -8 60 0 70 -5 73 -110 68 l-65 -3 0 -605 0 -605 89 -3 c65 -2 92 1 98
10 4 7 8 203 8 436 0 468 -3 447 67 514 71 68 174 102 263 88 58 -10 60 -7 60
95 0 88 -1 93 -22 99 -33 8 -64 6 -135 -9z"/>
<path d="M57225 8166 c-129 -27 -225 -99 -272 -204 -75 -169 -8 -369 152 -451
22 -11 100 -34 173 -51 156 -35 210 -65 236 -130 20 -51 20 -90 1 -137 -33
-78 -94 -115 -194 -116 -111 -1 -189 48 -231 144 -11 27 -26 49 -33 49 -23 0
-142 -42 -156 -55 -12 -11 -9 -23 17 -78 43 -92 100 -151 189 -193 65 -31 87
-37 171 -41 155 -9 259 25 347 114 74 74 90 117 90 248 0 94 -4 117 -23 156
-53 108 -166 183 -322 214 -197 40 -250 80 -250 193 0 118 118 193 255 163 62
-14 112 -61 144 -134 16 -37 25 -47 38 -44 10 3 43 11 73 18 73 17 81 28 65
83 -18 60 -53 113 -109 164 -53 49 -94 69 -181 88 -72 16 -101 16 -180 0z"/>
<path d="M58437 8165 c-215 -36 -391 -193 -460 -410 -19 -60 -22 -92 -22 -220
0 -138 3 -156 28 -230 52 -147 145 -260 272 -330 97 -53 164 -69 295 -69 98 1
126 4 187 27 71 25 146 69 172 101 26 31 41 19 41 -31 0 -72 4 -74 101 -71
l84 3 0 605 0 605 -80 3 c-94 3 -105 -5 -105 -80 0 -47 -11 -61 -27 -35 -15
24 -90 76 -139 98 -49 21 -196 50 -244 48 -14 -1 -60 -7 -103 -14z m273 -191
c106 -31 208 -119 231 -196 5 -18 9 -130 9 -248 0 -189 -3 -220 -19 -257 -64
-139 -268 -221 -453 -182 -202 43 -328 213 -328 444 0 219 107 384 285 438 67
21 207 21 275 1z"/>
<path d="M59965 8166 c-76 -15 -150 -54 -194 -100 -19 -20 -39 -36 -43 -36 -4
0 -8 22 -8 49 0 65 -12 73 -102 69 l-73 -3 -3 -608 -2 -608 92 3 93 3 5 435
c5 465 4 450 58 515 109 131 333 150 420 36 58 -75 56 -61 62 -541 l5 -445 93
-3 92 -3 0 427 c0 483 -3 466 81 553 59 61 116 84 209 84 119 0 189 -42 232
-138 10 -23 14 -138 18 -475 l5 -445 89 -3 c65 -2 92 1 98 10 11 18 10 827 -1
905 -26 180 -144 295 -329 323 -147 21 -269 -21 -377 -130 l-58 -59 -58 63
c-66 72 -136 109 -239 125 -77 13 -87 13 -165 -3z"/>
<path d="M53217 8143 c-4 -3 -7 -41 -7 -84 0 -71 2 -77 23 -83 12 -3 151 -6
310 -6 158 0 287 -2 287 -4 0 -2 -43 -71 -95 -152 -52 -82 -112 -178 -134
-214 -22 -36 -75 -120 -118 -187 -250 -393 -274 -434 -271 -455 l3 -23 475 0
475 0 0 80 0 80 -327 3 c-199 1 -328 6 -328 12 0 5 25 49 56 97 31 48 69 108
85 133 16 25 101 158 188 295 290 453 304 478 294 495 -9 13 -67 15 -460 18
-247 1 -453 -1 -456 -5z"/>
<path d="M54452 8142 c-10 -7 -12 -135 -10 -608 l3 -599 95 0 95 0 3 594 c1
430 -1 598 -9 607 -13 15 -154 20 -177 6z"/>
<path d="M54637 5434 c-4 -4 -7 -429 -7 -945 0 -845 2 -937 16 -943 29 -11
160 -6 172 6 8 8 12 68 12 204 l0 191 60 74 c33 41 66 74 72 74 6 0 82 -118
169 -262 86 -145 162 -270 169 -278 10 -11 36 -15 112 -15 112 0 125 9 89 59
-12 16 -21 31 -21 34 0 3 -24 45 -53 94 -205 338 -317 534 -311 544 3 6 89
110 190 231 101 121 184 229 184 239 0 17 -9 19 -111 19 -109 0 -111 -1 -134
-27 -33 -39 -235 -282 -265 -319 -14 -17 -49 -61 -78 -97 -30 -37 -58 -67 -63
-67 -5 0 -10 250 -11 593 l-3 592 -90 3 c-50 1 -94 0 -98 -4z"/>
<path d="M50465 5368 c-3 -7 -4 -420 -3 -918 l3 -905 83 -3 c53 -2 89 1 98 9
11 9 14 61 14 275 l0 264 173 0 c240 0 369 27 498 106 124 75 216 202 256 354
24 89 24 281 0 370 -59 222 -211 372 -442 437 -81 23 -672 33 -680 11z m566
-192 c112 -20 197 -64 262 -136 74 -82 101 -164 100 -305 0 -155 -38 -254
-129 -334 -101 -88 -199 -115 -434 -115 l-165 -1 -3 453 -2 452 147 0 c82 -1
182 -7 224 -14z"/>
<path d="M52200 4775 c-176 -40 -317 -150 -395 -308 -48 -97 -66 -181 -66
-309 -1 -172 32 -286 116 -404 108 -151 276 -234 475 -234 147 0 251 35 358
119 l52 41 0 -64 c0 -75 1 -76 100 -76 45 0 71 5 79 14 8 9 10 177 9 607 l-3
594 -90 0 -90 0 -3 -63 -3 -63 -42 36 c-55 48 -167 101 -241 114 -76 14 -186
12 -256 -4z m320 -194 c72 -27 126 -67 172 -124 l38 -49 0 -252 0 -252 -29
-46 c-85 -133 -291 -195 -474 -143 -202 58 -321 274 -286 520 25 184 153 330
319 365 67 14 198 4 260 -19z"/>
<path d="M53730 4777 c-61 -16 -116 -47 -172 -96 l-47 -42 -3 58 -3 58 -90 0
-90 0 -3 -594 c-1 -430 1 -598 9 -607 12 -14 141 -20 173 -8 14 5 16 53 16
436 0 489 -4 463 85 547 65 61 137 86 230 79 103 -9 175 -60 204 -147 7 -23
11 -168 11 -461 0 -328 3 -430 13 -444 10 -14 26 -16 97 -14 l85 3 0 480 0
480 -31 65 c-53 111 -144 184 -262 209 -66 14 -163 13 -222 -2z"/>
<path d="M56125 4775 c-284 -63 -476 -312 -477 -620 -1 -176 51 -317 161 -437
78 -85 154 -135 259 -170 69 -23 100 -28 185 -28 259 0 455 124 563 355 44 96
57 171 52 311 -3 97 -9 133 -31 194 -105 293 -409 462 -712 395z m280 -196
c110 -41 203 -145 247 -277 27 -81 27 -226 -1 -306 -42 -120 -125 -215 -231
-265 -48 -23 -68 -26 -161 -26 -99 0 -109 2 -171 33 -78 40 -126 85 -173 162
-69 114 -87 267 -47 401 71 238 310 362 537 278z"/>
<path d="M57065 4750 c-6 -9 276 -1144 295 -1187 9 -22 15 -23 119 -23 75 0
112 4 119 13 5 6 35 111 65 232 65 255 133 524 148 578 13 48 23 47 36 -5 14
-58 137 -536 174 -678 17 -63 35 -121 41 -127 12 -14 204 -18 225 -5 7 4 23
53 37 107 13 55 79 315 145 578 67 262 121 489 121 503 l0 25 -97 -3 -97 -3
-22 -90 c-23 -97 -70 -295 -110 -465 -74 -319 -91 -383 -96 -374 -4 5 -34 117
-68 249 -34 132 -86 337 -117 455 -30 118 -57 218 -59 222 -3 5 -45 8 -94 8
-106 0 -99 8 -134 -141 -14 -57 -59 -234 -101 -394 -42 -159 -81 -314 -87
-342 -20 -86 -21 -82 -78 162 -17 72 -40 166 -50 210 -11 44 -40 166 -65 270
-24 105 -48 200 -51 213 -6 21 -11 22 -100 22 -51 0 -95 -4 -99 -10z"/>
</g>
</svg>
